<?xml version="1.0" standalone="no"?>
<!DOCTYPE svg PUBLIC "-//W3C//DTD SVG 20010904//EN"
 "http://www.w3.org/TR/2001/REC-SVG-20010904/DTD/svg10.dtd">
<svg version="1.0" xmlns="http://www.w3.org/2000/svg"
 width="300.000000pt" height="137.000000pt" viewBox="0 0 300.000000 137.000000"
 preserveAspectRatio="xMidYMid meet">
<metadata>
Created by potrace 1.10, written by Peter Selinger 2001-2011
</metadata>
<g transform="translate(0.000000,137.000000) scale(0.100000,-0.100000)"
fill="#000000" stroke="none">
<path d="M335 1359 c-6 -9 -27 -19 -49 -23 -33 -6 -38 -5 -33 8 11 27 -9 17
-23 -11 -8 -16 -14 -31 -16 -35 -1 -5 -3 -11 -4 -15 -1 -5 -2 -11 -1 -15 1 -8
-15 -12 -33 -9 -5 1 -6 -5 -2 -14 3 -8 0 -26 -6 -40 -11 -24 -15 -25 -67 -20
-31 4 -66 8 -79 10 -15 3 -22 0 -19 -8 2 -8 75 -19 213 -32 115 -11 209 -22
208 -25 -1 -3 -23 -51 -50 -107 -40 -85 -52 -102 -67 -97 -10 3 -24 0 -32 -6
-24 -20 -19 22 5 48 24 26 35 28 26 7 -4 -10 1 -15 14 -15 11 0 20 5 20 12 0
6 -3 8 -7 5 -14 -15 -31 27 -21 55 12 32 29 29 21 -5 -4 -18 -3 -19 6 -7 13
18 15 60 3 60 -14 0 -42 -35 -42 -51 0 -8 -10 -25 -23 -39 -13 -14 -35 -50
-50 -80 -15 -30 -32 -64 -39 -75 -7 -10 -23 -36 -36 -57 -16 -27 -29 -38 -46
-38 l-24 0 29 53 c16 28 29 60 29 69 0 9 4 19 9 22 5 4 8 -10 6 -31 -2 -33 -1
-35 11 -18 9 12 10 21 4 25 -6 4 -2 14 11 26 19 17 30 34 81 128 21 38 23 66
5 66 -17 0 -47 -32 -47 -49 0 -7 -11 -27 -24 -44 -27 -36 -74 -118 -108 -189
-13 -26 -29 -48 -36 -48 -10 0 -8 10 8 38 56 93 81 142 75 142 -4 0 3 15 14
34 21 33 20 66 -3 66 -6 0 0 9 13 19 15 12 21 23 16 31 -6 10 -4 12 8 7 11 -4
14 -2 10 9 -3 9 0 14 7 12 7 -2 15 3 17 10 4 9 -1 13 -13 10 -23 -4 -75 -78
-69 -97 3 -7 -6 -25 -20 -39 -14 -13 -25 -32 -25 -41 0 -9 -12 -34 -25 -56
-14 -22 -25 -47 -25 -55 0 -8 -9 -32 -20 -53 -23 -43 -19 -57 16 -57 l24 0
-30 -60 c-30 -59 -42 -107 -15 -60 13 23 14 23 15 5 0 -11 -7 -31 -16 -43 -17
-24 -13 -29 8 -9 8 6 23 17 33 24 11 6 19 16 17 22 -1 6 2 11 8 11 5 0 10 -6
10 -12 1 -7 7 -1 15 13 8 15 21 29 30 33 21 8 19 -20 -2 -33 -15 -9 -15 -10
-3 -11 21 0 40 20 40 41 0 28 -15 31 -44 8 l-26 -20 6 30 c5 24 3 31 -8 31
-16 0 -17 -27 -2 -65 7 -20 7 -20 -15 -1 -18 17 -21 17 -15 3 3 -10 1 -17 -6
-17 -6 0 -9 -4 -5 -9 3 -5 1 -12 -4 -15 -5 -3 -11 6 -14 21 -6 31 30 113 47
107 6 -2 51 -10 100 -19 49 -8 91 -17 93 -19 4 -4 -154 -326 -166 -339 -4 -4
-21 -2 -39 4 -17 6 -41 9 -54 7 -15 -3 -4 -8 34 -17 55 -12 57 -14 47 -34 -9
-19 -8 -20 3 -6 7 9 54 100 103 202 50 102 97 187 105 190 8 3 4 5 -10 6 -43
2 -52 14 -40 47 6 16 10 29 8 29 -1 0 7 14 20 32 12 17 22 38 22 47 0 9 5 16
12 16 6 0 8 3 5 7 -9 9 61 134 84 151 21 15 27 40 6 26 -7 -5 -5 -2 5 8 19 17
25 33 8 23 -6 -4 -5 6 2 20 12 26 14 27 73 21 125 -14 156 -19 146 -25 -5 -4
-12 -19 -15 -34 -3 -15 -14 -42 -24 -60 -11 -18 -25 -48 -31 -68 -6 -20 -23
-46 -36 -59 -13 -13 -22 -27 -19 -31 3 -5 1 -9 -5 -9 -6 0 -8 -6 -5 -13 2 -7
-5 -23 -16 -35 -12 -12 -18 -27 -15 -32 3 -5 -1 -23 -10 -39 -28 -54 -13 -62
165 -85 84 -10 326 -53 387 -68 54 -13 70 -6 89 37 8 19 18 35 24 35 5 0 16
12 25 28 10 16 26 28 41 28 27 2 31 -8 9 -26 -8 -7 -15 -20 -15 -29 0 -14 2
-14 11 -1 9 12 10 12 5 -3 -3 -10 -6 -22 -6 -25 0 -4 -7 4 -16 16 -8 12 -12
28 -8 35 4 7 3 8 -2 4 -5 -5 -9 -23 -9 -42 0 -29 4 -34 27 -37 15 -3 25 -1 22
3 -2 4 8 6 23 5 16 -2 56 -4 90 -5 l61 -1 -11 -29 c-6 -16 -15 -27 -21 -25 -6
2 -29 5 -51 8 -22 2 -52 7 -67 11 -15 4 -34 2 -44 -3 -14 -8 -6 -11 37 -17 30
-4 63 -12 74 -17 15 -6 11 -7 -14 -3 -18 3 -56 5 -83 5 -41 0 -49 3 -44 15 5
13 2 14 -15 5 -13 -7 -44 -9 -85 -5 -49 6 -64 4 -62 -5 5 -22 -20 -22 -42 0
-12 12 -29 19 -38 17 -15 -4 -15 -5 1 -6 9 0 17 -8 17 -16 0 -20 -14 -19 -35
1 -14 15 -18 14 -39 -11 -15 -17 -25 -23 -28 -15 -4 12 -61 -99 -95 -182 -14
-35 -14 -39 6 -66 l20 -29 -25 5 c-24 4 -25 2 -22 -29 3 -35 11 -39 91 -52 20
-3 37 -2 37 4 0 5 -16 9 -35 9 -24 0 -35 5 -35 15 0 8 -5 15 -11 15 -5 0 -7 5
-4 10 10 16 22 11 28 -12 6 -21 7 -21 25 -5 26 23 42 21 43 -5 1 -17 2 -19 6
-5 5 18 39 23 62 8 12 -8 12 -12 2 -24 -6 -9 -8 -18 -3 -21 5 -3 14 5 20 18 9
20 7 25 -14 35 -14 6 -36 11 -49 11 -14 0 -25 5 -25 11 0 6 9 8 23 4 16 -4 18
-3 7 3 -8 5 -32 12 -52 16 -21 4 -38 12 -38 18 0 5 7 7 16 4 22 -8 40 4 23 15
-11 8 -10 12 6 25 14 10 21 11 24 3 2 -6 12 12 22 42 10 29 17 55 14 57 -4 4
-10 -9 -31 -68 -4 -12 -6 -12 -14 0 -5 8 -6 18 -4 22 3 4 0 8 -6 8 -7 0 -10
-7 -6 -15 10 -26 -4 -46 -28 -40 -16 5 -18 4 -6 -4 12 -8 11 -14 -10 -35 -30
-33 -40 -33 -40 0 0 35 29 132 42 140 6 4 8 -1 4 -12 -3 -11 -2 -25 3 -33 6
-9 8 -4 7 17 -1 17 -4 33 -8 37 -3 3 1 19 9 36 16 33 50 39 60 12 4 -10 10
-20 14 -23 5 -3 0 -11 -11 -18 -16 -10 -18 -9 -14 3 4 8 2 15 -4 15 -14 0 -23
-27 -15 -45 8 -24 36 -13 52 19 10 22 10 30 1 36 -8 5 -5 9 10 13 20 5 21 3
15 -36 -12 -68 -14 -77 -20 -87 -3 -5 -1 -18 4 -28 14 -26 3 -66 -14 -52 -8 7
-16 7 -19 2 -3 -6 4 -12 15 -15 15 -4 23 0 26 14 6 23 23 25 23 3 0 -12 3 -14
13 -6 14 12 105 11 124 -1 9 -6 8 -16 -7 -41 -10 -19 -16 -37 -12 -42 4 -4 -3
-5 -15 -2 -25 7 -37 -4 -52 -45 -15 -39 -5 -33 18 10 11 21 21 36 21 33 7 -27
7 -40 0 -40 -4 0 -16 -12 -26 -27 l-17 -28 26 18 c22 14 27 15 27 3 0 -8 10
-16 23 -18 12 -2 21 -9 19 -17 -2 -11 0 -12 11 -3 15 13 67 7 101 -11 15 -7
23 -5 33 9 7 10 13 25 13 33 -1 10 -7 5 -16 -12 -8 -15 -17 -27 -20 -27 -3 0
-2 5 1 10 3 6 -3 10 -15 10 -14 0 -19 4 -14 13 5 8 2 8 -9 -2 -13 -10 -20 -11
-30 -2 -8 6 -17 8 -20 4 -4 -3 -7 0 -7 8 0 11 -2 11 -10 -1 -6 -9 -10 -11 -10
-3 0 7 -6 10 -13 7 -8 -3 -19 1 -25 8 -14 17 -9 51 8 56 7 3 10 0 6 -6 -4 -6
1 -11 11 -11 37 -1 53 -5 53 -11 0 -4 14 -5 30 -2 26 4 29 2 24 -14 -5 -16 -4
-16 5 -4 14 20 2 30 -45 35 -21 2 -41 4 -44 5 -3 0 2 5 10 10 11 8 8 9 -12 4
-21 -5 -28 -2 -28 9 0 24 44 94 57 90 6 -2 14 1 17 6 5 7 14 7 29 0 14 -6 48
-7 95 -1 64 7 72 7 66 -7 -3 -9 -9 -25 -12 -36 -2 -11 -10 -26 -16 -34 -6 -7
-15 -27 -22 -45 -6 -17 -21 -55 -32 -83 -12 -29 -18 -53 -14 -53 4 1 34 60 67
132 l60 132 42 1 c33 1 40 -2 35 -14 -3 -9 -2 -13 3 -9 4 4 15 2 23 -5 13 -10
14 -8 8 13 l-7 25 16 -25 16 -25 -6 25 -6 25 22 -25 c14 -16 20 -19 16 -8 -13
36 19 30 42 -7 11 -18 12 -17 7 10 -3 17 -3 25 0 18 3 -7 11 -10 17 -8 7 2 34
6 61 9 l50 6 -21 -22 c-11 -13 -29 -39 -41 -59 -12 -19 -33 -48 -47 -63 -14
-15 -25 -32 -25 -38 0 -7 7 -3 15 8 13 17 14 16 8 -18 -3 -23 -2 -38 5 -38 9
0 28 65 23 83 -1 5 8 11 20 14 16 5 18 8 7 15 -8 6 -2 7 20 3 35 -7 46 9 13
20 -18 5 -18 8 -4 35 18 36 37 39 31 6 -3 -14 -1 -31 3 -38 6 -8 9 3 9 30 0
36 4 44 26 52 36 14 41 13 47 -10 3 -11 1 -18 -4 -14 -5 3 -9 1 -9 -4 0 -4 -8
-17 -17 -28 -21 -22 -26 -66 -10 -76 7 -4 7 -11 -2 -22 -7 -8 -11 -21 -8 -28
2 -7 0 -22 -5 -33 -6 -15 -4 -14 9 4 9 13 18 31 19 40 1 9 5 25 9 35 6 14 5
17 -4 12 -9 -6 -12 0 -9 20 2 22 8 28 23 26 13 -2 16 0 8 5 -8 6 -2 20 23 48
31 34 35 37 29 15 -4 -14 -9 -40 -12 -58 -3 -20 -10 -31 -17 -29 -8 3 -12 -3
-11 -16 1 -12 -2 -25 -8 -28 -5 -4 3 -6 17 -6 22 -1 24 2 15 14 -9 11 -8 17 7
27 14 11 21 11 27 3 6 -8 7 -7 4 3 -2 8 -10 14 -16 12 -15 -3 -14 19 5 63 17
42 30 43 14 1 -13 -36 -13 -43 4 -49 11 -4 13 2 10 28 -2 19 1 37 8 41 8 5 9
0 6 -14 -4 -12 -3 -22 2 -22 10 0 19 46 11 58 -3 5 -14 11 -23 13 -11 3 -15 9
-10 16 5 7 46 12 115 14 59 1 111 7 114 12 3 6 1 7 -5 3 -13 -8 -26 10 -17 24
12 20 35 -11 35 -46 0 -18 4 -35 9 -38 15 -9 20 6 9 24 -9 14 -9 22 1 34 9 11
10 16 2 16 -6 0 -11 5 -11 11 0 8 18 9 58 4 31 -4 58 -8 59 -9 2 -1 -31 -83
-72 -181 -41 -98 -72 -181 -70 -183 6 -6 35 18 35 28 0 9 129 322 135 328 3 4
327 -46 354 -54 9 -3 10 -8 4 -17 -18 -23 -116 -278 -109 -284 11 -11 21 9 76
147 30 74 56 138 60 142 3 4 79 -5 168 -20 118 -20 162 -25 162 -16 0 7 -5 14
-12 16 -8 3 -9 12 0 36 6 17 7 34 3 37 -11 6 -35 -51 -26 -64 4 -8 -1 -8 -17
-2 -29 11 -107 22 -178 27 -30 2 -57 4 -60 5 -3 1 -8 1 -12 0 -4 0 -1 16 6 37
12 34 16 37 54 40 38 3 42 1 43 -20 0 -22 1 -22 9 -3 14 33 12 35 -50 35 -56
0 -60 -2 -60 -22 0 -47 -8 -50 -126 -38 -60 6 -138 16 -174 22 -36 6 -81 13
-100 15 -75 8 -110 16 -110 24 0 6 47 121 105 257 58 136 105 255 105 265 0 9
8 17 18 17 14 0 15 2 2 10 -8 5 -54 12 -102 16 -54 4 -88 11 -88 18 0 7 -3 7
-8 1 -5 -7 -37 -7 -99 0 -93 10 -103 17 -58 43 12 7 14 12 6 12 -11 0 -11 3
-1 15 10 12 10 15 -1 15 -9 0 -10 3 -3 10 6 6 25 7 43 4 l32 -7 -22 -23 c-19
-21 -19 -22 -3 -20 11 2 19 8 19 14 0 32 63 43 73 13 3 -9 -1 -11 -16 -7 -12
4 -23 2 -28 -5 -4 -8 -3 -9 4 -5 7 4 23 -5 38 -21 21 -22 24 -23 15 -6 -14 27
-14 36 -1 28 6 -3 10 0 10 8 0 19 -38 37 -85 40 -22 1 -46 6 -54 11 -9 6 -18
4 -25 -6 -6 -8 -18 -17 -26 -21 -12 -4 -12 -6 2 -6 11 -1 15 -7 11 -21 -3 -11
-10 -17 -17 -13 -6 3 -8 3 -4 -2 15 -16 -11 -42 -39 -40 -15 2 -102 11 -193
19 -91 9 -212 21 -270 27 -58 7 -126 13 -152 14 -56 4 -128 15 -128 21 0 2 17
41 38 86 22 46 49 107 62 136 19 41 28 52 42 49 10 -3 16 -1 12 4 -3 5 -14 9
-24 9 -18 0 -63 -81 -131 -239 -18 -42 -25 -50 -43 -46 -11 2 -48 6 -81 10
-33 3 -105 9 -160 15 -55 5 -131 12 -170 16 -38 3 -93 9 -121 13 l-51 6 53
110 c58 119 63 136 37 113 -10 -9 -28 -19 -41 -23 -12 -3 -19 -11 -16 -17 4
-6 9 -5 15 3 4 7 11 10 15 6 10 -10 -62 -157 -77 -157 -6 0 -8 -8 -5 -18 6
-17 0 -17 -81 -9 -49 4 -98 9 -110 10 -13 1 -23 4 -23 7 1 14 29 55 36 52 5
-2 10 2 12 10 2 9 0 8 -7 -2 -9 -13 -11 -13 -11 1 0 9 7 22 15 29 8 7 15 19
15 26 0 7 9 29 20 49 11 19 15 35 9 35 -5 0 -31 -45 -57 -101 l-47 -101 -60 6
c-33 4 -79 9 -102 12 l-42 6 15 30 c9 17 23 32 33 35 13 3 16 12 13 37 -2 19
1 37 7 40 7 5 11 -4 11 -23 0 -16 6 -31 13 -34 8 -3 3 -11 -13 -25 -25 -21
-25 -21 -2 -17 12 2 27 7 32 10 13 8 13 -8 -1 -22 -8 -8 -1 -12 24 -15 20 -2
33 0 30 5 -3 4 3 7 13 5 13 -2 20 6 25 30 4 18 15 39 25 47 11 8 14 14 7 15
-20 0 -15 28 5 33 13 4 11 5 -5 6 -19 1 -23 -4 -23 -29 0 -16 -4 -30 -10 -30
-5 0 -10 -7 -10 -15 0 -9 -12 -20 -26 -25 -14 -6 -22 -14 -19 -20 3 -5 -1 -10
-10 -10 -12 0 -13 4 -7 18 5 9 8 36 7 60 0 23 3 42 7 42 4 0 8 -5 8 -11 0 -6
7 -3 16 5 8 9 14 24 12 34 -3 15 -5 15 -13 1z m-46 -71 c-1 -35 -2 -38 -8 -18
-7 23 -4 60 5 60 2 0 4 -19 3 -42z m720 -215 l288 -28 -33 -69 c-40 -83 -39
-82 -60 -65 -10 8 -19 13 -21 12 -12 -10 -23 1 -23 22 0 14 -7 28 -16 32 -37
14 -104 -56 -104 -109 0 -32 -23 -52 -50 -43 -15 5 -20 15 -20 41 0 19 5 34
10 34 6 0 10 -13 10 -30 0 -20 5 -30 15 -30 10 0 15 10 15 30 0 17 5 30 12 30
6 0 8 3 5 7 -4 3 -1 13 6 22 10 14 10 14 -5 3 -13 -10 -22 -11 -37 -2 -33 17
-24 28 20 24 27 -3 38 -1 33 7 -3 6 -19 9 -35 7 -31 -5 -36 1 -17 20 18 18 56
15 61 -5 4 -17 4 -17 12 0 4 9 4 28 1 41 -4 18 -11 23 -26 19 -27 -7 -70 -59
-77 -93 -5 -27 -54 -60 -89 -60 -19 0 -66 -49 -58 -62 3 -5 15 3 26 17 13 17
27 25 39 22 13 -3 17 -1 12 6 -3 7 -3 9 2 5 4 -4 14 -3 21 2 9 9 9 4 0 -22 -6
-18 -18 -44 -25 -57 -13 -24 -14 -24 -28 -6 -7 11 -11 26 -8 35 3 8 -4 4 -15
-10 -11 -14 -20 -29 -20 -35 -1 -5 -6 -1 -11 10 -8 18 -9 17 -5 -4 3 -14 0
-32 -7 -40 -9 -12 -9 -13 1 -7 6 4 12 2 12 -3 0 -6 -7 -11 -17 -11 -9 0 -14
-2 -11 -5 3 -3 -8 -19 -24 -36 -17 -16 -28 -33 -25 -36 4 -3 18 9 33 26 30 36
52 32 28 -5 -9 -13 -15 -27 -12 -29 7 -7 132 165 144 198 l11 30 11 -31 c10
-29 7 -37 -44 -113 -30 -45 -54 -87 -53 -93 0 -7 3 -6 6 2 6 14 23 6 23 -12 0
-9 -16 -9 -77 0 -76 11 -248 39 -309 49 l-31 5 31 63 c17 34 64 131 104 215
64 135 76 153 94 149 11 -3 149 -18 307 -34z m-763 -68 c-27 -41 -36 -28 -13
18 15 30 22 37 25 24 2 -10 -4 -29 -12 -42z m1214 24 c69 -7 126 -13 128 -14
2 -2 -8 -28 -22 -59 -20 -45 -29 -56 -48 -56 -13 0 -29 5 -35 11 -12 12 -53 3
-53 -12 0 -19 -19 -8 -22 13 -2 13 -11 24 -20 26 -13 3 -16 -1 -12 -15 5 -14
4 -15 -4 -4 -9 12 -13 12 -26 2 -9 -7 -24 -10 -37 -6 -13 4 -24 2 -29 -5 -4
-7 -12 -11 -18 -9 -13 5 47 139 62 139 6 0 67 -5 136 -11z m-400 -7 c0 -5 -7
-9 -15 -9 -8 0 -12 4 -9 9 3 4 9 8 15 8 5 0 9 -4 9 -8z m720 -27 c80 -8 233
-23 340 -34 107 -11 212 -22 233 -23 20 -1 37 -3 37 -4 0 -1 -39 -93 -86 -205
-48 -112 -97 -229 -109 -259 -18 -42 -28 -55 -44 -54 -16 0 -21 -6 -21 -24 0
-20 -3 -22 -14 -13 -9 8 -50 12 -114 10 -102 -2 -122 3 -122 25 0 9 25 11 98
9 106 -2 100 0 -83 31 -105 18 -109 19 -117 31 -5 6 -8 5 -8 -3 0 -7 -5 -10
-11 -6 -7 4 -25 7 -40 6 -16 0 -29 4 -29 9 0 6 30 9 69 8 38 -1 74 1 80 5 7 5
11 -1 11 -13 0 -12 5 -21 11 -21 6 0 9 6 6 13 -3 9 7 14 34 16 36 2 39 0 39
-24 0 -26 26 -35 45 -16 6 6 29 6 60 0 53 -10 115 -4 115 11 0 14 -34 12 -49
-2 -10 -11 -11 -9 -5 6 6 15 4 17 -7 11 -18 -11 -49 -14 -54 -5 -3 4 -25 5
-50 2 -28 -3 -45 -1 -45 6 0 12 93 19 144 11 20 -3 36 -2 36 2 0 8 31 5 53 -6
6 -4 4 0 -5 7 -11 9 -14 19 -8 28 5 8 6 18 3 24 -3 5 -1 6 6 2 7 -5 17 5 26
28 18 43 18 46 3 46 -6 0 -8 -3 -5 -6 3 -4 1 -16 -5 -28 -11 -20 -11 -20 -19
-1 -7 20 -8 20 -8 0 -1 -11 -8 -30 -16 -41 -8 -12 -12 -24 -9 -26 2 -3 -24 -5
-59 -5 -35 0 -73 -3 -84 -7 -23 -7 -23 -9 2 89 11 43 0 28 -23 -30 -13 -33
-26 -51 -38 -52 -60 -8 -144 -12 -144 -6 0 4 8 16 18 27 16 18 15 18 -14 -2
l-32 -22 -6 23 c-8 31 11 46 68 51 55 5 60 9 61 39 0 12 6 22 13 21 6 -1 21
-2 32 -2 31 -3 24 -14 -31 -52 -58 -40 -91 -71 -84 -79 3 -2 18 5 33 17 15 12
53 41 85 65 49 35 65 54 93 115 19 39 39 72 45 72 6 0 6 -7 -1 -19 -16 -30
-12 -36 10 -16 12 10 18 25 15 33 -3 8 -2 20 3 26 4 6 13 23 20 38 9 22 8 30
-4 43 -9 8 -12 15 -7 15 16 -1 43 -27 52 -51 9 -23 10 -23 10 8 1 29 -4 34
-45 52 -44 20 -49 20 -103 5 -31 -9 -63 -22 -71 -30 -13 -11 -18 -7 -34 32
-18 45 -19 45 -65 43 -32 -2 -61 -12 -99 -36 -46 -29 -60 -33 -122 -33 -42 0
-70 -4 -70 -10 0 -6 8 -10 18 -8 13 2 17 -5 18 -32 1 -26 1 -28 -3 -7 -5 34
-23 36 -23 2 0 -34 -20 -32 -21 3 l-2 27 -4 -27 c-2 -16 -9 -28 -15 -28 -6 0
-6 -6 2 -15 10 -12 9 -15 -4 -15 -13 0 -16 -6 -12 -20 3 -11 8 -29 11 -39 5
-17 1 -20 -22 -18 -32 3 -47 37 -16 38 16 0 16 1 -2 9 -26 11 -35 12 -34 3 1
-5 1 -14 0 -22 -2 -24 -51 32 -50 59 0 22 2 23 11 9 16 -24 64 -5 77 29 5 15
10 20 10 12 1 -8 -6 -28 -14 -44 -18 -33 -18 -36 -5 -36 15 0 40 56 40 89 0
23 4 29 15 25 8 -4 15 -2 15 4 0 22 51 122 62 122 7 0 78 -7 158 -15z m-1648
-27 c-7 -7 -12 -20 -12 -30 0 -23 -34 -90 -53 -107 -13 -10 -15 -9 -10 11 9
34 74 150 81 143 3 -3 0 -11 -6 -17z m79 -16 c-12 -23 -41 -48 -41 -35 0 5 7
19 16 31 19 27 39 30 25 4z m917 -24 c-10 -8 -10 -11 0 -15 14 -6 17 -93 3
-93 -6 0 -11 21 -13 48 -2 34 -7 47 -18 47 -8 1 -18 -4 -22 -10 -5 -6 -8 -3
-8 7 0 25 40 50 57 36 11 -9 12 -13 1 -20z m778 10 c12 -37 13 -49 2 -42 -6 4
-33 8 -61 10 -27 2 -52 6 -55 9 -11 10 21 34 51 38 18 2 37 5 44 5 6 1 15 -8
19 -20z m-896 -30 c0 -6 -6 -5 -15 2 -8 7 -15 14 -15 16 0 2 7 1 15 -2 8 -4
15 -11 15 -16z m-700 -13 c-14 -17 -69 -39 -77 -32 -3 4 0 13 7 22 7 9 15 13
18 11 2 -3 14 1 25 9 23 16 43 9 27 -10z m1785 15 c-3 -5 -10 -10 -16 -10 -5
0 -9 5 -9 10 0 6 7 10 16 10 8 0 12 -4 9 -10z m-925 -47 c0 -25 -3 -44 -6 -40
-10 9 -11 87 -2 87 4 0 8 -21 8 -47z m140 37 c0 -5 -4 -10 -10 -10 -5 0 -10 5
-10 10 0 6 5 10 10 10 6 0 10 -4 10 -10z m170 -34 c0 -40 -2 -43 -25 -43 -15
0 -27 7 -30 18 -8 23 1 39 21 39 8 0 14 7 14 15 0 8 5 15 10 15 6 0 10 -20 10
-44z m300 34 c0 -5 -4 -10 -10 -10 -5 0 -10 5 -10 10 0 6 5 10 10 10 6 0 10
-4 10 -10z m-434 -46 c0 -21 -3 -33 -10 -31 -13 4 -20 42 -12 64 9 24 20 7 22
-33z m709 38 c6 -4 16 -18 22 -32 11 -24 12 -24 12 -3 1 21 21 45 21 24 0 -18
-19 -61 -28 -61 -4 0 -14 16 -21 35 -7 20 -19 35 -28 35 -12 0 -14 -7 -10 -35
3 -19 2 -35 -4 -35 -5 0 -9 15 -9 34 0 24 -5 36 -17 39 -10 3 -2 5 17 6 19 0
40 -3 45 -7z m-957 -15 c14 -10 16 -57 2 -57 -5 0 -10 11 -10 25 0 14 -4 25
-10 25 -5 0 -10 -11 -10 -24 0 -14 5 -28 10 -31 6 -3 10 -11 10 -17 0 -7 -9
-2 -20 10 -26 27 -28 83 -2 79 9 -1 23 -6 30 -10z m168 -28 c2 -27 1 -28 -3
-6 -5 34 -23 36 -23 2 0 -34 -20 -32 -21 3 -1 19 -3 21 -6 7 -5 -24 -42 -75
-43 -58 0 6 5 15 10 18 6 3 10 21 10 38 0 30 2 32 37 31 36 -1 38 -3 39 -35z
m144 15 c0 -8 -8 -14 -17 -15 -16 0 -16 -1 1 -8 14 -5 16 -10 7 -15 -20 -13
-41 2 -41 28 0 25 15 37 38 28 6 -2 12 -10 12 -18z m275 -2 c7 -20 -19 -47
-39 -39 -19 7 -21 53 -3 60 18 6 35 -2 42 -21z m29 6 l7 -23 11 25 c14 33 22
11 9 -23 -14 -36 -27 -34 -40 4 -13 38 -13 39 -2 39 5 0 12 -10 15 -22z m124
10 c18 -18 15 -28 -10 -29 -17 0 -19 -2 -8 -7 19 -9 24 -40 9 -58 -19 -23 8
-17 32 7 11 11 23 19 25 16 3 -3 -2 -11 -9 -19 -11 -10 -12 -19 -5 -32 12 -22
-12 -52 -35 -43 -17 6 -28 65 -17 88 6 10 2 19 -11 27 -10 7 -19 18 -19 25 0
13 19 37 30 37 3 0 11 -5 18 -12z m62 2 c12 -8 10 -10 -10 -10 -25 -1 -25 -1
-2 -10 12 -5 22 -14 22 -20 0 -17 -30 -24 -43 -10 -10 10 -8 12 6 7 9 -4 17
-2 17 3 0 6 -7 10 -15 10 -15 0 -21 21 -8 33 9 9 15 9 33 -3z m-590 -30 c0
-16 -4 -30 -10 -30 -5 0 -10 14 -10 30 0 17 5 30 10 30 6 0 10 -13 10 -30z
m470 1 c0 -16 6 -31 13 -34 9 -3 9 -7 0 -17 -8 -9 -9 -17 -1 -30 12 -19 2 -90
-12 -90 -13 0 -13 17 0 25 6 3 10 17 10 31 0 13 -4 24 -10 24 -5 0 -10 -11
-10 -25 0 -34 -20 -32 -21 3 l-2 27 -4 -27 c-6 -40 -23 -34 -23 7 0 38 -13 46
-29 18 -14 -24 -14 -10 1 22 13 28 41 34 36 8 -2 -12 5 -18 22 -19 20 -2 25 2
26 22 1 13 -2 24 -7 24 -5 0 -9 14 -9 30 0 17 5 30 10 30 6 0 10 -13 10 -29z
m-1518 -59 c-37 -72 -45 -79 -70 -63 -12 7 -11 13 2 37 24 44 92 109 103 100
1 -1 -14 -34 -35 -74z m1718 59 c0 -11 3 -26 6 -35 12 -32 -12 -15 -28 19 -15
33 -15 35 3 35 12 0 19 -7 19 -19z m-1774 -41 c-14 -18 -29 -42 -32 -56 -3
-13 -12 -24 -20 -24 -15 0 14 58 49 97 31 35 33 18 3 -17z m1734 15 c0 -8 5
-15 11 -15 5 0 7 -5 4 -11 -4 -6 2 -17 14 -25 27 -20 27 -34 -1 -35 -21 0 -21
-1 -4 -8 15 -6 16 -10 7 -15 -8 -5 -20 -2 -29 8 -14 13 -14 20 -4 36 7 11 8
20 2 20 -5 0 -6 7 -3 17 4 9 2 14 -3 10 -6 -3 -11 3 -11 14 -1 10 2 19 8 19 5
0 9 -7 9 -15z m-887 -11 c8 -8 -9 -41 -37 -74 l-21 -25 22 18 c25 22 36 10 28
-30 -3 -15 -2 -22 1 -15 10 21 21 13 16 -13 -3 -18 -8 -23 -16 -16 -8 7 -17 1
-28 -20 -12 -20 -13 -29 -5 -29 19 1 56 36 67 64 6 16 17 26 30 26 25 0 25 -4
-2 -67 -16 -36 -28 -51 -38 -48 -8 2 -50 9 -92 16 -43 6 -78 14 -78 16 0 11
22 43 30 43 5 0 11 -8 14 -17 4 -14 4 -13 2 2 -1 11 8 30 21 42 39 37 25 37
-18 -1 -45 -38 -66 -39 -48 -3 22 44 83 127 92 127 5 0 -3 -16 -17 -35 -36
-47 -24 -44 20 5 36 40 45 45 57 34z m1007 -6 c-1 -7 -7 -24 -15 -38 l-14 -25
-1 31 c0 17 3 34 7 37 10 11 23 8 23 -5z m-1213 -68 c-13 -22 -27 -37 -30 -33
-4 3 -2 12 5 20 6 7 8 16 5 20 -3 3 1 19 10 36 13 26 17 28 25 14 6 -12 2 -28
-15 -57z m762 54 c-7 -9 -12 -31 -10 -50 1 -21 -2 -34 -9 -34 -6 0 -10 8 -8
18 4 26 -16 27 -24 0 -5 -18 -6 -15 -7 15 -1 20 2 36 7 36 22 -4 34 3 28 16
-4 10 1 15 16 15 18 0 19 -2 7 -16z m28 1 c-4 -8 -2 -17 3 -20 6 -4 10 1 10 9
0 9 5 16 10 16 6 0 10 -20 10 -45 0 -37 -3 -45 -19 -45 -26 0 -45 26 -35 47 8
21 11 29 13 43 0 6 4 10 7 10 3 0 4 -7 1 -15z m-497 -9 c0 -8 8 -13 18 -12 12
1 18 -8 20 -31 2 -19 -1 -33 -7 -33 -6 0 -11 11 -11 25 0 14 -4 25 -10 25 -5
0 -10 -11 -10 -25 0 -45 -15 -26 -16 20 0 25 3 45 8 45 4 0 8 -6 8 -14z m141
0 c-9 -10 -9 -20 0 -40 7 -14 9 -29 6 -33 -12 -11 -20 5 -23 47 -2 31 1 40 13
40 12 0 13 -3 4 -14z m81 6 c-18 -12 -34 -74 -22 -86 14 -14 13 -29 -2 -20 -7
4 -8 3 -4 -5 4 -6 12 -9 17 -6 5 4 9 2 9 -4 0 -12 -21 -20 -37 -14 -10 4 -10
10 -1 26 8 16 8 22 -1 25 -6 2 -11 10 -11 17 0 23 34 75 50 75 11 0 12 -2 2
-8z m658 -9 c0 -10 -4 -24 -9 -31 -6 -11 -9 -10 -13 5 -3 10 -3 24 -1 31 7 18
23 15 23 -5z m-915 -13 c3 -5 -2 -11 -12 -11 -17 -1 -17 -2 0 -6 9 -2 17 -11
17 -19 0 -19 -28 -30 -43 -15 -8 8 -5 11 14 12 l24 0 -22 9 c-23 9 -29 21 -16
33 10 10 31 8 38 -3z m129 4 c21 -8 21 -50 0 -58 -32 -12 -57 27 -32 52 14 14
12 14 32 6z m76 -8 c0 -8 -4 -18 -10 -21 -5 -3 -10 3 -10 14 0 12 5 21 10 21
6 0 10 -6 10 -14z m85 4 c3 -5 -2 -11 -12 -11 -17 -1 -17 -2 0 -6 9 -2 17 -11
17 -19 0 -19 -28 -30 -43 -15 -8 8 -5 11 14 12 l24 0 -22 9 c-25 10 -30 26
-10 33 19 8 25 8 32 -3z m531 -3 c4 -4 2 -7 -4 -7 -7 0 -12 -14 -12 -31 0 -34
-15 -69 -30 -69 -6 0 -10 9 -10 20 0 11 6 20 13 20 9 0 11 12 9 39 -3 32 -1
39 12 37 8 -1 19 -5 22 -9z m-219 -66 c-2 -37 -6 -48 -17 -46 -8 1 -15 6 -15
11 0 12 26 84 30 84 2 0 2 -22 2 -49z m-271 14 c-3 -8 -1 -15 3 -15 14 0 1
-38 -15 -44 -8 -3 -14 -1 -14 4 0 6 4 10 10 10 5 0 7 13 4 30 -5 20 -3 30 6
30 7 0 10 -7 6 -15z m584 9 c0 -3 -7 -12 -15 -20 -8 -9 -15 -24 -15 -35 0 -10
-4 -19 -10 -19 -5 0 -10 7 -10 15 0 17 -16 20 -25 5 -12 -20 -26 -10 -15 10 6
11 19 20 30 20 11 0 25 7 32 15 13 15 28 20 28 9z m-497 -30 c21 5 24 3 19
-19 -4 -21 -9 -24 -34 -20 -16 3 -37 1 -46 -4 -13 -8 -9 -10 21 -11 21 0 45
-7 53 -15 14 -13 13 -15 -5 -15 -12 0 -21 6 -22 13 0 10 -2 10 -6 0 -2 -7 -13
-13 -24 -13 -10 0 -19 6 -19 13 0 8 -3 7 -10 -3 -11 -17 4 -30 29 -23 11 3 20
-6 28 -26 8 -23 18 -31 35 -31 15 0 25 -6 25 -15 0 -8 -7 -15 -16 -15 -22 0
-145 20 -149 24 -2 2 4 21 12 41 19 43 19 48 7 41 -5 -4 -12 0 -14 6 -3 8 -6
6 -6 -4 -1 -10 -5 -18 -11 -18 -5 0 -9 3 -9 8 3 19 -2 26 -10 13 -5 -8 -16
-11 -26 -8 -32 13 -3 28 46 24 49 -3 50 -3 66 35 13 29 20 35 30 27 7 -6 23
-9 36 -5z m91 -5 c-3 -5 -1 -9 5 -9 5 0 13 5 16 10 8 13 25 3 25 -14 0 -16
-39 -25 -75 -18 -23 4 -34 30 -20 44 9 9 55 -4 49 -13z m128 -1 c-7 -7 -12 -8
-12 -2 0 14 12 26 19 19 2 -3 -1 -11 -7 -17z m-472 2 c0 -5 -7 -10 -16 -10 -8
0 -12 5 -9 10 3 6 10 10 16 10 5 0 9 -4 9 -10z m50 4 c0 -4 -38 -44 -42 -44
-3 0 -5 7 -5 15 0 8 4 15 9 15 5 0 7 4 3 9 -3 6 4 9 15 8 11 -1 20 -2 20 -3z
m64 0 c20 -8 21 -30 1 -38 -8 -3 -15 -1 -15 3 0 5 -3 16 -6 25 -7 18 -4 19 20
10z m470 -9 c-6 -16 -34 -21 -34 -7 0 13 11 22 26 22 8 0 11 -6 8 -15z m-703
-22 c-8 -15 -10 -15 -11 -2 0 17 10 32 18 25 2 -3 -1 -13 -7 -23z m614 7 c4
-6 -6 -10 -22 -9 -25 0 -26 1 -8 9 11 5 21 9 22 9 1 1 5 -3 8 -9z m45 0 c0 -5
-8 -10 -17 -10 -15 0 -16 2 -3 10 19 12 20 12 20 0z m-492 -44 c3 -15 -4 -17
-47 -15 -28 2 -51 4 -51 5 0 20 16 29 53 28 31 -1 43 -5 45 -18z m280 15 c7
-4 33 -5 57 -1 40 6 45 5 45 -12 0 -20 -25 -25 -36 -7 -4 8 -9 8 -17 0 -6 -6
-28 -11 -49 -11 -31 0 -38 4 -38 20 0 21 16 26 38 11z m280 -18 c11 -11 9 -13
-12 -13 -14 0 -26 6 -27 13 0 10 -2 10 -6 0 -2 -7 -13 -13 -23 -13 -10 0 -21
6 -23 13 -3 7 -6 5 -6 -5 -1 -14 -7 -16 -32 -11 l-31 6 16 -31 c9 -17 16 -40
16 -51 0 -18 -6 -20 -45 -17 -25 2 -48 -1 -51 -6 -3 -4 2 -8 10 -8 9 0 13 -6
10 -14 -4 -11 -13 -12 -35 -6 -17 5 -29 5 -29 -1 0 -9 4 -10 100 -28 l55 -10
-65 6 c-36 3 -93 5 -127 4 -35 -1 -63 2 -63 6 0 5 19 8 42 8 23 0 43 5 45 11
2 6 -3 11 -11 11 -8 0 -13 -4 -10 -9 3 -4 0 -8 -5 -8 -6 0 -11 6 -11 14 0 19
57 39 67 23 4 -7 10 0 15 18 5 19 3 32 -4 36 -19 12 10 39 42 39 20 0 29 6 33
21 5 18 12 21 37 17 17 -3 33 -1 36 3 7 11 77 -2 92 -18z m-301 -38 c5 -14 8
-14 24 1 23 21 36 13 14 -9 -19 -20 -19 -28 1 -20 14 5 14 3 3 -16 -16 -24
-39 -28 -39 -7 0 8 -13 19 -30 25 -37 12 -40 41 -5 41 14 0 28 -7 32 -15z
m193 1 c0 -3 -4 -8 -10 -11 -5 -3 -10 -1 -10 4 0 6 5 11 10 11 6 0 10 -2 10
-4z m-651 -81 c57 -4 66 -21 12 -23 -22 -1 -45 -3 -50 -4 -5 -2 -17 6 -25 17
-15 19 -16 19 -7 -6 10 -28 6 -39 -13 -39 -6 0 -4 5 4 10 8 5 12 10 8 10 -18
0 -24 2 -37 13 -11 10 -13 8 -7 -10 4 -12 2 -24 -4 -28 -7 -4 -10 0 -8 11 3
16 -3 19 -39 18 -29 -1 -40 2 -36 10 4 6 -1 5 -10 -3 -15 -12 -17 -11 -17 5 0
16 8 19 50 19 27 0 50 -3 50 -6 0 -12 29 -5 35 8 3 10 12 12 27 7 12 -3 42 -8
67 -9z m71 -15 c0 -11 -2 -20 -4 -20 -2 0 -6 9 -9 20 -3 11 -1 20 4 20 5 0 9
-9 9 -20z m81 10 c16 0 29 -4 29 -9 0 -15 -32 -22 -46 -10 -10 8 -14 8 -14 0
0 -6 -7 -11 -15 -11 -9 0 -15 9 -15 21 0 15 4 19 16 15 9 -3 29 -6 45 -6z
m233 -22 c-3 -4 -12 -8 -20 -8 -8 0 -14 -7 -14 -15 0 -8 -5 -15 -10 -15 -7 0
-7 7 1 21 10 20 9 21 -20 17 -22 -3 -31 0 -31 9 0 9 11 13 35 11 19 -1 38 1
41 5 9 9 25 -14 18 -25z m-116 6 c-15 -15 -19 -15 -34 -3 -16 12 -17 12 -9 -1
4 -8 4 -12 0 -7 -5 4 -18 -1 -29 -10 -19 -16 -19 -16 -7 -1 7 9 10 21 7 26 -3
4 16 9 42 11 44 2 46 1 30 -15z m162 1 c0 -8 -7 -15 -15 -15 -8 0 -15 7 -15
15 0 8 7 15 15 15 8 0 15 -7 15 -15z m-340 -29 c0 -2 -18 -6 -40 -8 -22 -2
-40 0 -40 4 0 5 18 8 40 8 22 0 40 -2 40 -4z m656 -92 l-1 -64 -457 0 -458 0
0 63 0 62 458 1 458 2 0 -64z m214 -6 c0 -13 -8 -18 -30 -18 -17 0 -30 5 -31
13 0 10 -2 10 -6 0 -2 -7 -21 -13 -41 -13 -34 0 -35 1 -16 15 18 15 18 15 0 8
-11 -3 -17 -2 -14 3 4 5 36 9 72 9 56 0 66 -3 66 -17z m-150 -2 c0 -10 -10
-14 -31 -14 -29 1 -30 2 -14 15 24 17 45 17 45 -1z m-1088 -134 c14 -6 12 -10
-10 -27 -21 -15 -24 -15 -13 -2 12 15 10 18 -10 26 -21 9 -21 10 -4 10 11 0
27 -3 37 -7z m-82 -17 c0 -8 0 -18 1 -22 0 -4 -4 -9 -10 -11 -6 -2 -11 8 -11
22 0 14 5 26 10 26 6 0 10 -7 10 -15z"/>
<path d="M644 968 c-10 -12 -14 -18 -7 -15 6 4 14 3 18 -3 10 -16 22 -12 28
11 4 17 3 18 -9 8 -12 -10 -13 -9 -8 5 8 22 1 20 -22 -6z"/>
<path d="M706 968 c-11 -13 -12 -18 -3 -19 50 -6 65 -8 87 -13 49 -12 90 -14
90 -5 0 5 5 9 11 9 5 0 7 -4 4 -10 -3 -5 -2 -10 3 -10 15 0 23 30 9 31 -50 6
-74 4 -86 -5 -11 -8 -13 -8 -8 0 9 16 -22 27 -38 14 -9 -7 -16 -6 -24 3 -6 8
-9 16 -6 19 3 2 -1 5 -9 5 -8 0 -21 -9 -30 -19z m34 -8 c0 -5 -5 -10 -11 -10
-5 0 -7 5 -4 10 3 6 8 10 11 10 2 0 4 -4 4 -10z m130 -15 c0 -7 -30 -13 -34
-7 -3 4 4 9 15 9 10 1 19 0 19 -2z"/>
<path d="M675 914 c-17 -26 -17 -27 2 -22 11 3 41 2 66 -2 32 -5 44 -3 40 4
-3 6 0 5 8 -1 19 -18 49 -16 49 3 0 14 -2 15 -17 3 -11 -10 -14 -10 -9 -1 4 6
4 12 -1 13 -4 0 -18 2 -30 5 -14 2 -23 -1 -23 -9 0 -8 -4 -7 -10 3 -6 10 -10
11 -10 3 0 -7 -8 -13 -17 -12 -11 0 -13 3 -6 6 10 3 10 8 -1 19 -19 19 -21 18
-41 -12z m35 2 c0 -2 -7 -7 -16 -10 -8 -3 -12 -2 -9 4 6 10 25 14 25 6z"/>
<path d="M767 851 c2 -8 -2 -11 -12 -7 -14 5 -40 -26 -30 -36 2 -2 -6 -5 -18
-5 -24 -2 -47 -28 -46 -52 0 -11 3 -9 9 5 5 12 14 25 21 30 9 5 10 2 6 -10 -6
-15 -5 -15 18 1 13 10 27 25 30 34 3 9 15 19 25 22 11 3 20 10 20 17 0 6 -4 9
-9 6 -5 -4 -11 -3 -14 1 -2 5 -2 2 0 -6z"/>
<path d="M610 763 c0 -10 4 -14 8 -8 4 6 11 13 16 18 5 4 2 7 -7 7 -10 0 -17
-8 -17 -17z"/>
<path d="M598 713 c-18 -22 -31 -43 -25 -43 2 0 18 14 35 30 18 17 26 30 18
30 -7 0 -20 -8 -28 -17z"/>
<path d="M648 700 c-10 -17 -12 -30 -7 -30 6 0 13 9 16 20 3 11 9 20 14 20 5
0 9 5 9 10 0 19 -15 10 -32 -20z"/>
<path d="M690 719 c0 -5 5 -7 10 -4 6 3 10 8 10 11 0 2 -4 4 -10 4 -5 0 -10
-5 -10 -11z"/>
<path d="M750 721 c0 -7 -4 -9 -10 -6 -5 3 -15 3 -21 -1 -8 -4 -7 -9 2 -14 10
-7 10 -11 -1 -24 -7 -9 -11 -19 -8 -22 3 -3 15 12 27 32 12 20 19 39 16 42 -3
3 -5 0 -5 -7z"/>
<path d="M508 693 c7 -3 16 -2 19 1 4 3 -2 6 -13 5 -11 0 -14 -3 -6 -6z"/>
<path d="M1355 1010 c-3 -5 -1 -10 4 -10 6 0 11 5 11 10 0 6 -2 10 -4 10 -3 0
-8 -4 -11 -10z"/>
<path d="M1320 999 c0 -5 5 -7 10 -4 6 3 10 8 10 11 0 2 -4 4 -10 4 -5 0 -10
-5 -10 -11z"/>
<path d="M1385 1000 c-8 -13 14 -42 25 -35 5 3 10 0 12 -5 2 -6 21 -13 43 -17
23 -3 36 -2 32 3 -5 5 -14 9 -20 10 -7 0 -20 2 -30 2 -15 2 -16 5 -6 23 8 15
8 19 0 15 -6 -4 -11 -1 -11 6 0 9 -3 9 -10 -2 -6 -10 -10 -11 -10 -2 0 15 -16
16 -25 2z m25 -21 c0 -6 -4 -7 -10 -4 -5 3 -10 11 -10 16 0 6 5 7 10 4 6 -3
10 -11 10 -16z"/>
<path d="M1464 988 c-8 -12 6 -29 18 -22 6 4 19 -4 30 -17 14 -18 17 -19 11
-5 -4 13 -3 17 5 12 8 -5 12 2 11 21 0 27 -1 27 -9 6 -11 -27 -18 -30 -16 -7
1 18 -40 28 -50 12z"/>
<path d="M1345 981 c-6 -5 -21 -11 -35 -14 l-25 -4 26 -2 c15 0 32 6 39 14 14
16 10 21 -5 6z"/>
<path d="M2180 830 l-25 -6 23 -8 c24 -8 37 -3 31 12 -2 4 -15 5 -29 2z"/>
<path d="M2125 803 c-17 -5 -15 -7 10 -18 22 -8 32 -9 37 -1 17 25 2 31 -47
19z"/>
<path d="M2186 764 c-5 -17 -12 -24 -21 -20 -8 3 -15 1 -15 -4 0 -6 5 -10 11
-10 8 0 8 -5 -1 -15 -8 -9 -8 -15 -2 -15 6 0 12 -10 14 -22 4 -28 -30 -58 -66
-58 -30 0 -34 14 -8 29 16 10 16 10 0 11 -10 0 -18 -4 -18 -10 0 -5 -4 -10
-10 -10 -5 0 -10 14 -10 32 0 48 -14 23 -15 -28 -1 -24 2 -39 5 -34 4 7 18 8
33 5 22 -6 24 -10 14 -25 -6 -10 -15 -16 -19 -14 -5 3 -6 10 -3 15 3 5 -1 6
-10 3 -14 -6 -13 -10 6 -30 12 -13 30 -24 38 -24 14 1 13 2 -1 11 -16 9 -17
12 -2 34 8 13 22 26 31 29 13 5 14 4 3 -9 -7 -9 -10 -19 -6 -22 4 -4 11 -1 16
7 24 38 36 50 52 50 27 0 25 66 -2 75 -19 6 -19 8 -5 35 17 34 18 40 6 40 -5
0 -12 -12 -15 -26z m18 -77 c7 -12 7 -20 0 -27 -9 -9 -14 -3 -22 20 -12 34 2
39 22 7z"/>
<path d="M2112 757 c-29 -31 -28 -44 5 -50 l28 -5 -22 18 c-18 14 -20 20 -9
29 7 6 16 8 19 4 4 -3 7 1 7 10 0 22 -2 21 -28 -6z"/>
<path d="M2088 678 c5 -5 16 -8 23 -6 8 3 3 7 -10 11 -17 4 -21 3 -13 -5z"/>
<path d="M1886 482 c-3 -5 1 -9 9 -9 8 0 12 4 9 9 -3 4 -7 8 -9 8 -2 0 -6 -4
-9 -8z"/>
<path d="M1440 855 c0 -8 5 -15 10 -15 6 0 10 7 10 15 0 8 -4 15 -10 15 -5 0
-10 -7 -10 -15z"/>
<path d="M1640 855 c0 -8 7 -15 15 -15 8 0 15 7 15 15 0 8 -7 15 -15 15 -8 0
-15 -7 -15 -15z"/>
<path d="M1837 753 c-12 -11 -8 -23 8 -23 8 0 15 7 15 15 0 16 -12 20 -23 8z"/>
<path d="M969 668 c-6 -21 -5 -38 2 -38 5 0 9 6 9 14 0 8 6 17 13 19 7 3 5 6
-5 6 -10 1 -18 0 -19 -1z"/>
<path d="M1630 745 c0 -8 5 -15 10 -15 6 0 10 7 10 15 0 8 -4 15 -10 15 -5 0
-10 -7 -10 -15z"/>
<path d="M1210 745 c0 -9 5 -15 11 -13 6 2 11 8 11 13 0 5 -5 11 -11 13 -6 2
-11 -4 -11 -13z"/>
<path d="M1570 630 c0 -5 5 -10 10 -10 6 0 10 5 10 10 0 6 -4 10 -10 10 -5 0
-10 -4 -10 -10z"/>
<path d="M1160 371 c0 -4 -18 -6 -40 -4 -25 3 -40 1 -40 -6 0 -6 19 -11 45
-11 33 0 45 4 45 15 0 8 -2 15 -5 15 -3 0 -5 -4 -5 -9z"/>
<path d="M990 357 c0 -9 12 -11 40 -9 22 2 40 8 40 13 0 5 -18 9 -40 9 -26 0
-40 -5 -40 -13z"/>
<path d="M658 1363 c6 -2 18 -2 25 0 6 3 1 5 -13 5 -14 0 -19 -2 -12 -5z"/>
<path d="M773 1363 c9 -2 25 -2 35 0 9 3 1 5 -18 5 -19 0 -27 -2 -17 -5z"/>
<path d="M950 1351 c-5 -11 -10 -25 -10 -31 0 -15 24 9 33 33 9 23 -10 22 -23
-2z"/>
<path d="M991 1365 c7 -7 340 -8 347 -1 3 3 -75 6 -173 6 -98 0 -176 -2 -174
-5z"/>
<path d="M1436 1361 c-3 -5 1 -11 9 -14 9 -4 12 -1 8 9 -6 16 -10 17 -17 5z"/>
<path d="M1570 1363 c0 -8 -11 -10 -32 -6 -24 3 -39 -1 -57 -16 -13 -12 -30
-21 -38 -21 -7 0 -13 -4 -13 -10 0 -5 -8 -10 -17 -11 -11 0 -13 -3 -5 -6 6 -2
12 -12 12 -21 0 -12 3 -13 8 -5 4 7 27 14 49 16 35 3 40 1 34 -12 -5 -9 -6
-22 -4 -29 6 -16 -42 -62 -66 -62 -9 0 -23 6 -30 13 -10 10 -11 9 -6 -5 8 -20
54 -25 72 -7 8 8 13 8 17 0 13 -20 28 -11 24 13 -3 15 0 27 8 30 8 3 14 10 14
16 0 6 -4 9 -8 6 -5 -3 -8 9 -8 27 1 28 -2 32 -21 29 -24 -3 -28 4 -15 25 10
16 36 20 38 6 1 -7 2 -16 3 -20 0 -3 13 4 27 18 l27 24 -18 -27 c-10 -16 -13
-28 -7 -28 19 0 34 38 23 58 -6 9 -11 12 -11 5z m-100 -57 c0 -2 -7 -6 -15
-10 -8 -3 -15 -1 -15 4 0 6 7 10 15 10 8 0 15 -2 15 -4z m40 -112 c0 -8 -5
-12 -10 -9 -6 4 -8 11 -5 16 9 14 15 11 15 -7z"/>
<path d="M192 1348 c5 -15 28 -18 29 -3 0 6 -7 12 -17 13 -10 3 -15 -1 -12
-10z"/>
<path d="M509 1337 c-14 -12 -19 -18 -12 -13 7 5 13 5 13 2 0 -4 7 0 16 9 25
25 11 27 -17 2z"/>
<path d="M572 1345 c-7 -8 -11 -17 -10 -19 2 -2 -10 -16 -26 -31 -20 -18 -25
-30 -18 -37 6 -6 8 -18 5 -27 -4 -14 -3 -14 6 -1 5 8 13 11 17 7 4 -4 2 -13
-4 -19 -14 -14 -16 -28 -3 -28 5 0 14 14 20 30 5 17 15 30 20 30 6 0 7 8 4 17
-5 12 -2 15 9 10 12 -4 14 -1 10 15 -4 17 -1 20 14 16 16 -4 20 1 22 23 2 26
-1 29 -25 29 -16 -1 -34 -7 -41 -15z m48 -5 c8 13 10 12 10 -4 0 -13 -5 -17
-20 -13 -11 3 -20 1 -20 -4 0 -6 -12 -22 -27 -36 -16 -15 -22 -23 -15 -19 7 4
12 1 12 -8 0 -14 -3 -14 -20 -4 -21 13 -21 13 5 36 15 12 23 27 19 34 -4 6 -3
8 3 5 6 -4 14 1 17 10 6 15 8 15 17 3 8 -13 10 -13 19 0z"/>
<path d="M837 1354 c-3 -3 -2 -17 4 -31 12 -31 12 -46 0 -38 -15 8 -23 -13
-13 -32 8 -14 12 -12 26 15 9 17 13 38 10 46 -5 12 -2 15 11 10 11 -5 15 -15
12 -31 -4 -20 -2 -21 11 -11 13 11 14 10 3 -10 -7 -12 -16 -20 -22 -17 -5 4
-9 -1 -9 -9 0 -9 -4 -16 -9 -16 -5 0 -12 -7 -15 -16 -3 -9 -2 -12 5 -9 5 4 17
1 25 -6 12 -10 17 -10 23 -1 4 7 14 10 23 7 8 -3 21 1 28 10 18 22 50 19 50
-5 0 -22 -16 -27 -23 -7 -2 6 -7 9 -11 6 -8 -7 13 -59 24 -59 10 0 40 68 40
91 0 11 7 33 15 50 10 19 13 35 7 46 -6 11 -11 12 -16 4 -4 -6 -2 -11 3 -11 6
0 11 -5 11 -11 0 -5 -4 -8 -9 -5 -7 5 -22 -16 -23 -34 0 -9 -92 -57 -120 -64
-35 -8 -37 10 -4 25 15 7 26 23 30 41 9 46 7 78 -5 78 -7 0 -8 -11 -4 -30 4
-19 3 -30 -4 -30 -6 0 -11 6 -11 14 0 7 -9 16 -21 19 -12 3 -18 10 -14 16 6
11 -17 15 -28 5z"/>
<path d="M1612 1348 c-7 -7 -12 -17 -12 -22 0 -6 4 -5 9 2 6 10 10 10 20 -2
10 -12 7 -24 -13 -65 -36 -70 -32 -75 9 -12 19 29 35 62 35 74 0 17 6 22 25
22 26 0 33 -9 15 -20 -5 -3 -10 -10 -10 -16 0 -5 8 -1 18 9 11 9 17 20 15 25
-2 4 1 7 8 7 7 0 9 -8 6 -21 -5 -18 -4 -19 6 -8 7 8 18 20 26 27 12 10 0 12
-65 12 -49 0 -85 -5 -92 -12z m38 -14 c0 -8 -4 -12 -10 -9 -5 3 -10 10 -10 16
0 5 5 9 10 9 6 0 10 -7 10 -16z"/>
<path d="M1782 1340 c-20 -32 -15 -48 13 -42 14 2 27 8 30 12 2 4 -8 5 -23 2
l-27 -4 21 22 c20 20 23 21 57 7 30 -13 35 -13 30 -1 -4 11 6 14 46 14 l51 0
-15 -37 c-22 -52 -13 -51 13 2 l22 45 -103 0 c-91 0 -104 -2 -115 -20z"/>
<path d="M2072 1353 c39 -3 46 -7 41 -21 -6 -15 -5 -15 10 -3 29 23 19 31 -40
29 -57 -2 -57 -2 -11 -5z"/>
<path d="M2150 1342 c0 -11 -7 -25 -15 -32 -9 -8 -12 -22 -8 -41 4 -20 2 -29
-7 -29 -8 0 -11 -2 -8 -5 14 -14 35 9 36 41 1 19 6 43 12 53 7 13 7 22 0 26
-5 3 -10 -3 -10 -13z"/>
<path d="M2175 1330 c-13 -26 -13 -30 -1 -30 8 0 16 10 18 23 3 23 42 33 64
16 7 -5 11 -3 11 6 0 11 -11 15 -38 15 -33 0 -41 -5 -54 -30z"/>
<path d="M2293 1353 c9 -2 17 -9 17 -14 0 -6 5 -7 10 -4 19 12 10 25 -17 24
-17 -1 -21 -3 -10 -6z"/>
<path d="M2350 1349 c0 -6 6 -17 14 -24 10 -11 16 -11 26 -2 10 9 14 9 17 0 3
-8 12 -9 34 -1 16 5 26 14 23 19 -7 13 43 11 68 -2 14 -8 23 -8 27 -1 4 7 12
7 21 2 11 -7 12 -11 0 -24 -14 -18 -8 -32 9 -21 6 3 11 19 11 36 l0 29 -70 0
c-50 0 -71 -4 -77 -14 -6 -11 -19 -13 -50 -9 -24 3 -40 9 -37 14 3 5 0 9 -5 9
-6 0 -11 -5 -11 -11z"/>
<path d="M2634 1354 c-6 -2 -9 -17 -7 -32 5 -32 -51 -107 -70 -95 -18 11 -38
12 -31 2 3 -5 10 -7 15 -4 9 6 13 -7 10 -35 -1 -8 11 -1 26 16 60 68 72 88 68
116 -2 16 0 26 5 23 5 -3 11 -1 15 5 6 10 -11 12 -31 4z"/>
<path d="M2689 1351 c11 -7 9 -10 -8 -16 -17 -5 -21 -14 -21 -46 0 -23 5 -42
13 -44 6 -3 71 -6 142 -8 l130 -2 -2 -25 c-1 -25 -1 -25 10 3 7 17 19 27 31
28 19 0 18 1 -4 10 -28 11 -223 14 -269 4 -30 -6 -31 -6 -31 29 l0 36 143 1
c78 1 150 1 160 0 9 -1 17 4 17 13 0 16 -31 22 -44 9 -13 -14 -67 -11 -73 3
-6 16 -43 19 -43 4 0 -6 -24 -10 -52 -9 -42 1 -48 3 -28 9 19 6 12 8 -30 9
-35 0 -50 -2 -41 -8z"/>
<path d="M39 1318 c-12 -16 -15 -29 -9 -33 5 -3 10 -11 10 -16 0 -6 -6 -7 -12
-3 -9 6 -9 3 1 -9 7 -9 10 -24 7 -33 -5 -14 -4 -15 8 -5 8 7 23 11 33 9 10 -1
33 4 52 11 31 14 33 17 28 54 -5 35 -3 38 14 34 13 -3 19 -1 16 6 -2 8 -27 12
-66 12 -57 0 -65 -3 -82 -27z m32 -10 c1 -22 1 -22 9 2 7 21 8 18 9 -18 1 -24
-3 -41 -8 -37 -5 3 -12 1 -16 -5 -11 -18 -22 -1 -17 26 3 20 2 25 -7 19 -9 -5
-9 -1 1 14 17 27 28 27 29 -1z m69 12 c0 -5 -6 -10 -12 -11 -10 0 -10 -2 0 -6
10 -4 10 -8 1 -19 -8 -10 -8 -14 0 -14 6 0 11 -4 11 -10 0 -5 -9 -10 -20 -10
-17 0 -20 7 -20 40 0 33 3 40 20 40 11 0 20 -4 20 -10z"/>
<path d="M756 1320 c9 -16 13 -34 10 -39 -4 -5 -1 -11 6 -13 13 -5 48 21 48
35 0 5 -6 4 -14 -2 -14 -12 -27 -2 -39 32 -4 9 -11 17 -16 17 -5 0 -3 -13 5
-30z"/>
<path d="M1005 1340 c-3 -5 -1 -10 4 -10 6 0 11 5 11 10 0 6 -2 10 -4 10 -3 0
-8 -4 -11 -10z"/>
<path d="M2227 1322 c-18 -20 -22 -42 -9 -42 10 0 35 50 29 56 -2 2 -11 -4
-20 -14z"/>
<path d="M1384 1308 l-19 -23 23 19 c21 18 27 26 19 26 -2 0 -12 -10 -23 -22z"/>
<path d="M2326 1313 c-6 -14 -5 -15 5 -6 7 7 10 15 7 18 -3 3 -9 -2 -12 -12z"/>
<path d="M340 1305 c-7 -9 -11 -18 -8 -20 3 -3 11 1 18 10 7 9 11 18 8 20 -3
3 -11 -1 -18 -10z"/>
<path d="M988 1313 c7 -3 16 -2 19 1 4 3 -2 6 -13 5 -11 0 -14 -3 -6 -6z"/>
<path d="M1278 1313 c6 -2 18 -2 25 0 6 3 1 5 -13 5 -14 0 -19 -2 -12 -5z"/>
<path d="M2521 1304 c0 -11 3 -14 6 -6 3 7 2 16 -1 19 -3 4 -6 -2 -5 -13z"/>
<path d="M170 1289 c0 -11 5 -17 10 -14 6 3 10 13 10 21 0 8 -4 14 -10 14 -5
0 -10 -9 -10 -21z"/>
<path d="M1130 1299 c0 -5 9 -9 20 -9 11 0 20 2 20 4 0 2 -9 6 -20 9 -11 3
-20 1 -20 -4z"/>
<path d="M1847 1296 c-4 -10 -1 -13 8 -9 8 3 12 9 9 14 -7 12 -11 11 -17 -5z"/>
<path d="M2847 1304 c12 -3 24 -13 27 -22 3 -12 4 -11 3 3 -2 14 -10 21 -27
22 -21 1 -21 1 -3 -3z"/>
<path d="M474 1292 c-16 -11 -1 -47 21 -49 17 -1 18 0 5 10 -9 7 -14 20 -12
30 4 19 2 20 -14 9z"/>
<path d="M1206 1292 c-3 -5 1 -9 9 -9 8 0 12 4 9 9 -3 4 -7 8 -9 8 -2 0 -6 -4
-9 -8z"/>
<path d="M1735 1289 c-4 -6 -5 -12 -2 -15 2 -3 7 2 10 11 7 17 1 20 -8 4z"/>
<path d="M2370 1285 c-19 -10 -27 -10 -33 -2 -4 7 -5 -1 -1 -18 10 -43 16 -47
49 -25 22 14 25 20 13 20 -10 0 -18 -4 -18 -10 0 -5 -7 -10 -15 -10 -8 0 -15
7 -15 15 0 8 9 15 19 15 10 0 21 7 25 15 6 18 7 18 -24 0z"/>
<path d="M2781 1284 c0 -11 3 -14 6 -6 3 7 2 16 -1 19 -3 4 -6 -2 -5 -13z"/>
<path d="M2921 1284 c0 -11 3 -14 6 -6 3 7 2 16 -1 19 -3 4 -6 -2 -5 -13z"/>
<path d="M633 1265 c0 -30 6 -28 12 4 2 11 0 21 -4 21 -5 0 -8 -11 -8 -25z"/>
<path d="M1547 1276 c-4 -9 -3 -26 2 -38 l8 -23 7 22 c4 13 3 30 -2 39 -8 15
-10 15 -15 0z"/>
<path d="M2190 1282 c0 -6 -7 -9 -15 -6 -8 4 -15 1 -15 -5 0 -6 6 -11 14 -11
17 0 31 18 22 27 -3 4 -6 1 -6 -5z"/>
<path d="M2415 1280 c-3 -5 -2 -10 4 -10 5 0 13 5 16 10 3 6 2 10 -4 10 -5 0
-13 -4 -16 -10z"/>
<path d="M1358 1236 c-9 -25 -13 -46 -8 -46 6 0 10 9 10 19 0 11 5 21 11 23 6
2 9 14 7 27 -2 19 -6 15 -20 -23z"/>
<path d="M2547 1267 c-3 -7 3 -13 13 -13 10 0 17 3 14 7 -2 4 4 10 13 12 12 3
9 5 -8 6 -15 0 -29 -5 -32 -12z"/>
<path d="M1392 1238 c-6 -18 -9 -34 -7 -37 3 -2 5 1 5 8 0 7 5 9 10 6 6 -3 10
1 10 9 0 9 9 16 20 16 11 0 20 5 20 11 0 5 -5 7 -10 4 -6 -4 -17 -2 -23 4 -10
7 -16 2 -25 -21z"/>
<path d="M1825 1260 c-8 -13 5 -13 25 0 13 8 13 10 -2 10 -9 0 -20 -4 -23 -10z"/>
<path d="M1901 1248 c-14 -23 -14 -23 8 -4 22 20 25 26 13 26 -4 0 -13 -10
-21 -22z"/>
<path d="M590 1239 c-14 -11 -20 -18 -13 -15 6 4 18 0 26 -8 12 -13 14 -11 13
15 -1 16 -1 29 -1 29 0 0 -11 -10 -25 -21z"/>
<path d="M731 1246 c-8 -10 -6 -20 11 -42 45 -58 53 -64 68 -53 13 9 13 10 -1
6 -10 -3 -22 6 -34 29 -10 19 -23 34 -29 34 -6 0 -6 4 2 12 9 9 16 7 32 -7 18
-16 23 -17 30 -5 13 21 12 36 -1 23 -9 -9 -15 -8 -26 3 -18 18 -37 18 -52 0z"/>
<path d="M1159 1249 c-9 -5 -1 -7 20 -4 18 2 35 6 37 8 9 8 -44 5 -57 -4z"/>
<path d="M1460 1250 c0 -5 5 -10 10 -10 6 0 10 5 10 10 0 6 -4 10 -10 10 -5 0
-10 -4 -10 -10z"/>
<path d="M2077 1241 c-4 -17 -3 -21 5 -13 5 5 8 16 6 23 -3 8 -7 3 -11 -10z"/>
<path d="M2230 1249 c0 -5 5 -7 10 -4 6 3 10 8 10 11 0 2 -4 4 -10 4 -5 0 -10
-5 -10 -11z"/>
<path d="M2420 1256 c0 -2 7 -7 16 -10 8 -3 12 -2 9 4 -6 10 -25 14 -25 6z"/>
<path d="M698 1239 c-3 -8 -1 -24 3 -36 5 -14 4 -23 -3 -25 -13 -5 -2 -28 13
-28 11 0 12 70 0 89 -7 11 -9 11 -13 0z"/>
<path d="M2160 1234 c-26 -11 -31 -17 -21 -23 8 -6 11 -16 7 -27 -6 -18 -5
-17 9 0 8 11 15 25 15 32 0 7 12 17 28 22 15 6 20 11 12 11 -8 0 -31 -7 -50
-15z"/>
<path d="M2255 1210 c-14 -22 -30 -40 -37 -40 -6 0 -8 -3 -5 -6 9 -10 33 12
56 52 28 47 17 43 -14 -6z"/>
<path d="M0 1224 c0 -8 5 -12 10 -9 6 3 10 10 10 16 0 5 -4 9 -10 9 -5 0 -10
-7 -10 -16z"/>
<path d="M1075 1231 c-3 -5 -1 -12 5 -16 5 -3 10 1 10 9 0 18 -6 21 -15 7z"/>
<path d="M450 1211 c0 -11 4 -22 9 -25 4 -3 6 6 3 19 -5 30 -12 33 -12 6z"/>
<path d="M476 1214 c-4 -10 -1 -14 6 -12 15 5 23 28 10 28 -5 0 -13 -7 -16
-16z"/>
<path d="M1171 1223 c-1 -17 11 -22 34 -12 19 9 19 9 -2 5 -12 -2 -24 1 -27 8
-3 8 -5 8 -5 -1z"/>
<path d="M1440 1220 c0 -5 5 -10 10 -10 6 0 10 5 10 10 0 6 -4 10 -10 10 -5 0
-10 -4 -10 -10z"/>
<path d="M1711 1224 c0 -6 -11 -11 -23 -11 -41 -1 -51 -3 -45 -9 3 -4 2 -15
-4 -25 -7 -15 -6 -17 6 -13 8 3 13 10 10 14 -9 14 12 21 39 14 16 -4 23 -11
19 -18 -3 -6 -1 -6 8 2 7 6 30 12 51 12 25 0 36 -4 34 -12 -1 -7 -1 -10 1 -5
9 15 31 7 27 -10 -4 -13 -15 -18 -44 -18 -21 0 -38 4 -37 9 2 7 -31 10 -88 7
-18 -1 -20 -35 -2 -48 6 -6 34 -13 61 -16 36 -4 52 -1 65 12 10 9 26 21 37 27
22 13 30 42 17 55 -5 5 -35 10 -66 11 -42 1 -57 6 -60 17 -3 9 -5 11 -6 5z
m34 -84 c4 -6 13 -9 20 -8 8 2 15 -1 17 -7 6 -18 -35 -17 -49 1 -10 14 -13 15
-13 3 0 -11 -8 -14 -29 -11 -20 3 -28 8 -24 18 6 16 69 19 78 4z"/>
<path d="M2402 1202 c-11 -25 -11 -25 4 -10 9 9 15 21 13 27 -2 6 -10 -2 -17
-17z"/>
<path d="M2430 1221 c0 -5 6 -11 13 -14 8 -3 6 -11 -8 -28 l-20 -24 23 19 c26
22 28 41 7 50 -8 3 -15 1 -15 -3z"/>
<path d="M1245 1210 c3 -5 11 -10 16 -10 6 0 7 5 4 10 -3 6 -11 10 -16 10 -6
0 -7 -4 -4 -10z"/>
<path d="M2204 1212 c-6 -4 -16 -18 -23 -32 l-12 -25 23 26 c13 15 30 29 38
32 13 5 13 5 0 6 -8 0 -20 -3 -26 -7z"/>
<path d="M2287 1214 c-4 -4 -7 -14 -7 -23 0 -11 3 -12 11 -4 6 6 10 16 7 23
-2 6 -7 8 -11 4z"/>
<path d="M2980 1210 c-13 -8 -12 -10 3 -10 9 0 17 5 17 10 0 12 -1 12 -20 0z"/>
<path d="M676 1195 c-9 -26 -7 -32 5 -12 6 10 9 21 6 23 -2 3 -7 -2 -11 -11z"/>
<path d="M2596 1195 c-3 -8 -1 -15 4 -15 6 0 10 7 10 15 0 8 -2 15 -4 15 -2 0
-6 -7 -10 -15z"/>
<path d="M806 1185 c-3 -8 -1 -15 4 -15 13 0 22 18 11 24 -5 3 -11 -1 -15 -9z"/>
<path d="M2952 1163 c-6 -16 -14 -41 -17 -58 l-5 -30 14 30 c9 17 15 37 16 46
0 8 5 20 12 27 8 8 8 12 1 12 -6 0 -15 -12 -21 -27z"/>
<path d="M1122 1168 c-7 -7 -12 -16 -12 -21 0 -5 7 -1 16 8 9 9 14 18 12 20
-2 3 -10 -1 -16 -7z"/>
<path d="M1159 1153 c-6 -15 -15 -30 -21 -34 -7 -4 -7 -8 0 -13 6 -3 13 3 17
14 7 21 49 28 60 10 3 -5 11 -10 17 -10 6 0 1 9 -11 19 -13 11 -30 17 -38 14
-11 -4 -14 -2 -9 5 4 7 18 10 31 8 14 -3 27 0 30 5 4 5 -10 9 -30 9 -29 0 -37
-5 -46 -27z"/>
<path d="M1770 1169 c0 -5 5 -7 10 -4 6 3 10 8 10 11 0 2 -4 4 -10 4 -5 0 -10
-5 -10 -11z"/>
<path d="M915 1159 c-4 -6 -5 -12 -2 -15 2 -3 7 2 10 11 7 17 1 20 -8 4z"/>
<path d="M1027 1150 c-9 -11 -13 -20 -7 -20 5 0 14 9 20 20 6 11 9 20 8 20 -2
0 -11 -9 -21 -20z"/>
<path d="M2565 1160 c-3 -6 1 -7 9 -4 18 7 21 14 7 14 -6 0 -13 -4 -16 -10z"/>
<path d="M2445 1150 c3 -5 8 -10 11 -10 2 0 4 5 4 10 0 6 -5 10 -11 10 -5 0
-7 -4 -4 -10z"/>
<path d="M2496 1152 c-2 -4 4 -8 14 -8 10 0 16 4 14 8 -3 4 -9 8 -14 8 -5 0
-11 -4 -14 -8z"/>
<path d="M2976 1129 c-3 -17 -6 -36 -6 -42 0 -13 13 -1 16 16 2 7 6 22 10 35
3 12 2 22 -4 22 -5 0 -12 -14 -16 -31z"/>
<path d="M1050 1146 c0 -2 7 -9 15 -16 9 -7 15 -8 15 -2 0 5 -7 12 -15 16 -8
3 -15 4 -15 2z"/>
<path d="M1451 1141 c-8 -5 -9 -11 -3 -15 5 -3 12 1 16 9 6 17 6 18 -13 6z"/>
<path d="M2274 1138 c-15 -23 -40 -105 -36 -117 6 -18 22 -2 22 22 1 12 7 40
15 62 14 40 14 57 -1 33z"/>
<path d="M2380 1141 c0 -8 -21 -57 -48 -115 -3 -5 7 -6 21 -2 24 6 24 5 14
-19 -9 -18 -18 -23 -32 -19 -18 4 -18 4 -2 -6 19 -12 37 -6 37 14 0 17 27 40
33 29 3 -5 20 -10 39 -11 18 -1 39 -10 46 -19 6 -9 12 -12 12 -6 0 17 -22 29
-82 43 -32 7 -58 16 -58 19 0 3 11 27 24 54 17 35 20 47 10 47 -8 0 -14 -4
-14 -9z"/>
<path d="M2075 1130 c-4 -6 -13 -10 -21 -10 -9 0 -22 -7 -30 -15 -9 -8 -12
-15 -7 -15 5 0 13 4 19 9 5 5 25 13 44 18 26 7 30 11 18 16 -10 3 -20 2 -23
-3z"/>
<path d="M2315 1100 c0 -17 3 -30 8 -30 4 0 6 11 4 25 -4 36 -13 39 -12 5z"/>
<path d="M55 1067 c-14 -24 -25 -51 -25 -60 0 -9 -5 -19 -10 -22 -6 -3 -10
-13 -10 -22 0 -15 2 -14 18 0 23 21 33 22 26 2 -4 -8 -1 -15 4 -15 6 0 14 17
17 38 4 20 10 47 16 60 12 30 12 62 -1 62 -5 0 -21 -20 -35 -43z m23 -26 c-7
-22 -18 -41 -25 -41 -9 0 -6 14 9 45 26 54 34 52 16 -4z"/>
<path d="M507 1062 c-15 -16 -15 -19 -2 -19 8 0 22 9 32 19 14 15 14 18 1 18
-8 0 -22 -8 -31 -18z"/>
<path d="M2286 1065 c4 -8 1 -22 -6 -30 -11 -13 -10 -14 4 -9 18 7 22 39 6 49
-6 3 -7 -1 -4 -10z"/>
<path d="M2950 1074 c0 -5 11 -22 25 -38 14 -16 25 -24 25 -18 0 6 -11 23 -25
38 -14 15 -25 23 -25 18z"/>
<path d="M2732 1050 c0 -14 2 -19 5 -12 2 6 2 18 0 25 -3 6 -5 1 -5 -13z"/>
<path d="M607 1043 c-4 -3 -7 -11 -7 -17 0 -6 5 -5 12 2 6 6 9 14 7 17 -3 3
-9 2 -12 -2z"/>
<path d="M2840 1031 c-23 -24 -50 -68 -50 -83 0 -7 12 5 26 27 15 22 33 45 41
52 8 6 11 13 6 16 -4 2 -15 -3 -23 -12z"/>
<path d="M438 1018 c-10 -10 -17 -18 -15 -18 1 0 17 4 35 9 17 5 32 6 32 2 0
-4 7 -8 15 -8 21 0 19 17 -2 18 -10 1 -22 1 -27 0 -5 -1 -12 2 -15 7 -3 4 -14
0 -23 -10z"/>
<path d="M2901 1024 c0 -11 3 -14 6 -6 3 7 2 16 -1 19 -3 4 -6 -2 -5 -13z"/>
<path d="M528 995 c-3 -14 -1 -25 3 -25 5 0 9 7 9 16 0 10 6 14 14 11 10 -4
13 -1 9 9 -8 23 -30 16 -35 -11z"/>
<path d="M2118 1013 c7 -3 16 -2 19 1 4 3 -2 6 -13 5 -11 0 -14 -3 -6 -6z"/>
<path d="M2867 1005 c-8 -8 -25 -30 -37 -50 -12 -19 -25 -35 -29 -35 -8 0 -91
-171 -91 -186 0 -12 -52 -138 -59 -144 -3 -3 -16 -26 -28 -52 -19 -41 -27 -48
-70 -60 -50 -15 -153 -76 -153 -91 0 -9 66 28 88 50 7 7 24 15 38 18 13 3 35
7 50 10 23 5 24 4 14 -15 -8 -15 -21 -20 -49 -20 -25 0 -44 -7 -56 -20 -20
-23 -9 -26 20 -7 11 7 33 14 49 16 27 3 29 1 23 -28 -8 -37 17 -45 27 -8 3 12
17 34 31 50 19 19 22 27 11 27 -9 0 -22 -12 -30 -27 -20 -36 -21 -11 -1 26 21
41 41 46 53 12 8 -24 15 -28 35 -24 14 3 28 11 31 18 3 10 -2 11 -22 6 -21 -6
-29 -3 -38 13 -6 12 -16 20 -22 18 -16 -3 -15 10 2 50 8 18 43 102 77 186 l63
154 55 -6 c31 -4 77 -9 104 -12 51 -6 68 11 20 21 -16 4 -35 10 -43 14 -20 11
-25 51 -8 63 10 8 10 9 -2 5 -10 -3 -15 -16 -14 -41 l1 -37 -41 6 c-46 8 -55
13 -40 23 12 8 67 92 60 92 -3 0 -11 -7 -19 -15z"/>
<path d="M2135 1000 c-17 -8 -16 -8 8 -7 15 1 27 5 27 9 0 10 -9 9 -35 -2z"/>
<path d="M2279 993 c-13 -15 -12 -15 9 -4 23 12 28 21 13 21 -5 0 -15 -7 -22
-17z"/>
<path d="M2245 990 c3 -5 8 -10 11 -10 2 0 4 5 4 10 0 6 -5 10 -11 10 -5 0 -7
-4 -4 -10z"/>
<path d="M2420 981 c0 -12 5 -21 10 -21 6 0 10 6 10 14 0 8 -4 18 -10 21 -5 3
-10 -3 -10 -14z"/>
<path d="M2450 986 c0 -2 8 -10 18 -17 15 -13 16 -12 3 4 -13 16 -21 21 -21
13z"/>
<path d="M410 969 c0 -5 5 -7 10 -4 6 3 10 8 10 11 0 2 -4 4 -10 4 -5 0 -10
-5 -10 -11z"/>
<path d="M2951 949 c-1 -17 5 -29 15 -33 13 -5 14 -3 6 6 -5 7 -12 22 -15 33
-4 16 -5 14 -6 -6z"/>
<path d="M29 938 c-1 -7 -1 -19 0 -25 1 -7 -5 -26 -14 -43 -12 -23 -13 -35 -5
-48 11 -16 11 -16 6 1 -3 10 5 40 19 66 13 27 21 51 18 55 -10 10 -23 7 -24
-6z"/>
<path d="M551 934 c0 -11 3 -14 6 -6 3 7 2 16 -1 19 -3 4 -6 -2 -5 -13z"/>
<path d="M367 920 c-3 -11 -3 -20 -1 -20 2 0 8 9 14 20 6 11 7 20 2 20 -6 0
-12 -9 -15 -20z"/>
<path d="M446 925 c-9 -26 -7 -32 5 -12 6 10 9 21 6 23 -2 3 -7 -2 -11 -11z"/>
<path d="M386 896 c-9 -19 -22 -37 -29 -39 -7 -3 -5 -6 6 -6 9 -1 17 5 17 12
0 8 4 7 11 -3 8 -12 9 -10 4 8 -4 13 -1 29 6 38 6 8 10 17 7 20 -3 2 -13 -11
-22 -30z"/>
<path d="M530 900 c0 -5 5 -10 11 -10 5 0 7 5 4 10 -3 6 -8 10 -11 10 -2 0 -4
-4 -4 -10z"/>
<path d="M493 884 c-15 -16 -16 -24 -4 -24 8 0 24 30 19 35 -2 2 -9 -3 -15
-11z"/>
<path d="M2530 880 c0 -5 9 -12 20 -15 24 -7 26 -37 5 -55 -8 -7 -15 -23 -15
-36 0 -13 -5 -24 -11 -24 -6 0 -9 9 -6 20 3 11 2 20 -2 20 -3 0 -12 -9 -19
-20 -10 -17 -10 -20 3 -20 20 0 19 -10 -4 -37 -11 -13 -29 -23 -40 -23 -12 0
-20 -3 -20 -7 4 -28 -2 -53 -12 -47 -7 4 -10 1 -7 -7 2 -7 16 -14 30 -14 26
-2 62 -28 52 -38 -3 -3 -13 -3 -22 1 -14 5 -15 4 -2 -10 13 -13 17 -11 42 20
16 19 28 41 28 48 0 9 12 14 33 15 39 1 28 5 -35 14 -59 8 -61 21 -9 72 41 42
61 104 41 128 -13 15 -50 27 -50 15z m32 -102 c-7 -7 -12 -8 -12 -2 0 14 12
26 19 19 2 -3 -1 -11 -7 -17z m-101 -135 c-12 -20 -14 -14 -5 12 4 9 9 14 11
11 3 -2 0 -13 -6 -23z m77 -5 c2 -13 -3 -18 -17 -18 -14 0 -19 5 -15 15 4 8 1
15 -5 15 -6 0 -11 -7 -11 -15 0 -8 -4 -15 -9 -15 -5 0 -7 9 -4 21 7 26 56 23
61 -3z"/>
<path d="M397 834 c-13 -18 -14 -22 -3 -18 8 3 17 13 20 21 10 25 3 23 -17 -3z"/>
<path d="M470 840 c-8 -5 -12 -11 -9 -14 2 -3 11 -1 19 4 8 5 12 11 9 14 -2 3
-11 1 -19 -4z"/>
<path d="M2866 825 c-9 -26 -7 -32 5 -12 6 10 9 21 6 23 -2 3 -7 -2 -11 -11z"/>
<path d="M2887 821 c-7 -30 7 -43 22 -20 7 12 8 18 2 14 -6 -3 -11 -2 -11 4 0
5 6 12 13 14 7 4 6 6 -4 6 -9 1 -19 -8 -22 -18z"/>
<path d="M2840 809 c0 -12 -4 -17 -11 -14 -14 9 -49 -24 -49 -45 0 -11 10 -20
25 -22 20 -4 23 -3 14 8 -6 8 -15 11 -20 8 -5 -3 -9 1 -9 10 0 22 31 12 46
-15 7 -13 13 -19 14 -13 0 6 -9 23 -21 38 -11 14 -16 26 -11 26 6 0 19 -12 31
-27 l20 -28 -5 25 c-5 20 -4 22 6 10 10 -13 11 -13 7 0 -2 8 -11 14 -19 12
-11 -2 -14 4 -10 23 2 14 2 25 -2 25 -3 0 -6 -9 -6 -21z"/>
<path d="M2990 822 c0 -7 -14 -12 -31 -12 -16 0 -28 -4 -25 -9 3 -4 17 -6 31
-3 26 5 41 19 31 29 -3 4 -6 1 -6 -5z"/>
<path d="M2480 809 c0 -5 5 -7 10 -4 6 3 10 8 10 11 0 2 -4 4 -10 4 -5 0 -10
-5 -10 -11z"/>
<path d="M2510 810 c0 -5 4 -10 9 -10 6 0 13 5 16 10 3 6 -1 10 -9 10 -9 0
-16 -4 -16 -10z"/>
<path d="M120 775 c-7 -9 -11 -17 -9 -20 3 -2 10 5 17 15 14 24 10 26 -8 5z"/>
<path d="M2924 782 c5 -8 -1 -12 -15 -12 -16 0 -20 -3 -13 -10 11 -11 44 -3
44 10 0 5 -5 12 -12 16 -7 4 -8 3 -4 -4z"/>
<path d="M2958 769 c-7 -19 17 -53 31 -44 16 9 13 35 -3 35 -8 0 -16 5 -18 12
-3 8 -6 7 -10 -3z m32 -29 c0 -5 -2 -10 -4 -10 -3 0 -8 5 -11 10 -3 6 -1 10 4
10 6 0 11 -4 11 -10z"/>
<path d="M2940 731 c5 -11 15 -23 21 -27 6 -3 3 5 -6 20 -20 30 -30 35 -15 7z"/>
<path d="M2475 730 c-3 -5 -1 -10 4 -10 6 0 11 5 11 10 0 6 -2 10 -4 10 -3 0
-8 -4 -11 -10z"/>
<path d="M2890 729 c0 -6 9 -13 19 -16 12 -3 17 -11 14 -19 -3 -8 -1 -14 4
-14 21 0 22 15 1 37 -23 25 -38 30 -38 12z"/>
<path d="M4 700 c0 -11 1 -20 3 -20 1 0 7 9 13 20 8 15 8 20 -3 20 -7 0 -13
-9 -13 -20z"/>
<path d="M2751 694 c0 -11 3 -14 6 -6 3 7 2 16 -1 19 -3 4 -6 -2 -5 -13z"/>
<path d="M2816 691 c-10 -11 -32 -22 -50 -24 l-31 -4 34 -1 c27 -2 32 -5 27
-19 -6 -17 -5 -17 8 0 14 18 32 24 21 7 -3 -5 2 -10 11 -10 16 0 16 2 -2 21
-16 17 -16 22 -4 29 21 14 28 12 40 -7 10 -16 10 -16 8 2 -4 27 -40 31 -62 6z"/>
<path d="M2315 679 c-4 -6 -5 -12 -2 -15 2 -3 7 2 10 11 7 17 1 20 -8 4z"/>
<path d="M202 658 c-27 -29 -44 -75 -32 -83 6 -4 10 5 10 19 0 14 4 27 9 30 5
4 7 -4 4 -16 -3 -18 -1 -17 13 7 9 17 23 34 31 38 13 8 9 27 -6 27 -4 0 -17
-10 -29 -22z"/>
<path d="M2376 661 c5 -18 3 -22 -7 -17 -8 4 -5 0 5 -8 24 -20 36 -20 36 -2 0
8 3 16 8 19 4 2 1 2 -5 1 -7 -2 -13 1 -13 7 0 6 -4 8 -9 5 -5 -4 -12 0 -15 6
-3 7 -3 2 0 -11z"/>
<path d="M2885 650 c3 -5 8 -10 11 -10 2 0 4 5 4 10 0 6 -5 10 -11 10 -5 0 -7
-4 -4 -10z"/>
<path d="M2613 634 c-5 -13 -8 -13 -15 -2 -7 10 -8 9 -4 -4 3 -12 0 -18 -9
-18 -9 0 -12 6 -9 18 5 14 3 14 -10 -2 -12 -15 -13 -22 -3 -28 12 -7 13 -11
16 -44 1 -13 4 -14 14 -5 8 6 16 9 19 6 2 -3 5 1 5 9 0 8 -6 12 -14 9 -7 -3
-13 0 -13 6 0 6 10 11 23 11 16 0 18 3 8 9 -10 7 -11 13 -2 30 7 11 9 21 6 21
-3 0 -8 -7 -12 -16z"/>
<path d="M2742 628 c-7 -7 -12 -17 -12 -24 0 -15 -27 -37 -32 -27 -3 4 -3 3
-2 -4 2 -6 -2 -13 -8 -15 -6 -2 -3 -9 6 -17 14 -11 16 -11 16 3 0 9 5 16 10
16 6 0 10 7 10 15 0 25 14 17 28 -15 8 -16 11 -40 7 -52 -6 -23 -6 -22 14 2
11 14 23 21 27 17 9 -9 -25 -47 -41 -47 -14 0 -29 -29 -20 -38 3 -3 5 0 5 6 0
7 6 12 14 12 7 0 19 7 26 15 7 8 15 13 19 11 4 -3 6 7 5 22 -2 41 -3 44 -15
36 -7 -4 -9 1 -7 12 2 11 11 18 19 16 8 -2 11 -1 7 3 -4 4 0 14 8 23 13 12 13
16 2 23 -8 6 -14 3 -16 -7 -5 -19 -42 -58 -42 -43 0 6 5 20 11 32 9 19 8 20
-3 6 -7 -9 -19 -14 -26 -11 -10 3 -10 7 -1 18 15 18 7 28 -9 12z"/>
<path d="M2850 619 c0 -5 10 -9 23 -9 13 0 32 -7 43 -15 19 -14 19 -14 -2 -15
-26 0 -50 -27 -52 -58 0 -12 -10 -37 -22 -55 l-22 -32 31 34 c16 19 33 47 36
63 8 33 13 36 70 41 22 2 39 7 38 11 -2 3 -3 11 -3 16 0 6 -17 10 -38 10 -21
0 -42 3 -45 7 -11 10 -57 13 -57 2z"/>
<path d="M575 583 c-11 -15 -24 -34 -29 -42 -16 -26 21 7 45 41 26 36 11 37
-16 1z"/>
<path d="M111 583 c-1 -26 -18 -31 -23 -7 -2 10 -9 5 -22 -18 l-19 -33 21 19
c23 20 31 9 10 -12 -6 -6 -9 -14 -7 -17 10 -9 50 56 46 73 -3 12 -5 11 -6 -5z"/>
<path d="M1136 576 c3 -9 13 -16 22 -16 8 0 13 1 11 3 -2 1 -12 9 -22 16 -15
12 -17 12 -11 -3z"/>
<path d="M2540 570 c0 -11 -12 -27 -26 -36 -19 -13 -22 -19 -12 -26 9 -6 6 -7
-9 -3 -15 4 -23 1 -26 -12 -3 -10 -3 0 0 22 4 30 1 45 -11 54 -17 14 -66 7
-66 -9 0 -6 8 -5 19 2 15 9 23 9 35 -1 28 -24 19 -39 -21 -36 -21 1 -30 1 -21
-2 15 -4 16 -7 4 -26 -7 -12 -16 -39 -19 -60 -5 -33 -4 -37 8 -27 9 7 15 30
15 51 0 29 4 39 16 39 13 0 15 -7 10 -30 -6 -34 -4 -34 52 7 18 13 30 28 27
33 -3 5 5 10 17 12 18 2 23 10 25 36 1 17 -3 32 -8 32 -5 0 -9 -9 -9 -20z"/>
<path d="M1280 570 c-9 -6 -10 -10 -3 -10 6 0 15 5 18 10 8 12 4 12 -15 0z"/>
<path d="M139 568 c-6 -24 -7 -68 -1 -64 9 5 15 66 7 66 -3 0 -5 -1 -6 -2z"/>
<path d="M33 517 c0 -8 6 -14 14 -14 9 0 10 4 2 14 -6 7 -12 13 -14 13 -1 0
-2 -6 -2 -13z"/>
<path d="M330 495 c-5 -14 -15 -25 -21 -25 -8 0 -7 6 2 18 13 15 12 16 -2 4
-18 -14 -40 -13 -51 3 -4 6 -8 1 -8 -10 0 -12 -4 -25 -10 -31 -6 -6 -2 -10 12
-11 15 -2 18 1 10 6 -10 6 -10 10 2 20 22 19 31 -5 12 -34 -9 -14 -24 -25 -34
-25 -14 0 -15 -2 -3 -9 20 -13 51 5 51 29 0 10 5 22 10 25 6 3 10 1 10 -5 0
-18 -29 -68 -42 -74 -7 -3 1 -3 17 0 47 9 57 13 50 24 -7 12 12 50 25 50 6 0
10 -9 10 -20 0 -36 27 -21 38 20 5 22 6 37 1 34 -5 -3 -9 -14 -9 -25 0 -11 -4
-18 -10 -14 -5 3 -8 11 -6 18 1 7 1 9 -1 5 -3 -5 -9 -8 -14 -8 -14 0 -11 28 4
33 9 4 9 6 -1 6 -7 1 -24 -24 -37 -56 -14 -31 -28 -53 -31 -50 -3 3 7 33 23
66 16 34 26 61 21 61 -5 0 -13 -11 -18 -25z"/>
<path d="M2980 500 c-6 -11 -8 -20 -6 -20 3 0 10 9 16 20 6 11 8 20 6 20 -3 0
-10 -9 -16 -20z"/>
<path d="M93 488 c-20 -26 -26 -41 -15 -34 12 7 36 46 29 46 -3 0 -9 -6 -14
-12z"/>
<path d="M510 489 c0 -5 5 -7 10 -4 6 3 10 8 10 11 0 2 -4 4 -10 4 -5 0 -10
-5 -10 -11z"/>
<path d="M542 480 c-7 -11 -8 -20 -2 -20 5 0 14 9 20 20 6 11 7 20 3 20 -5 0
-14 -9 -21 -20z"/>
<path d="M573 470 c-30 -36 -37 -56 -24 -65 7 -3 8 0 5 9 -4 9 1 18 10 22 9 3
16 13 16 20 0 8 10 18 22 23 15 5 17 9 7 13 -8 3 -24 -7 -36 -22z"/>
<path d="M431 483 c2 -8 -3 -23 -22 -70 -5 -15 -17 -23 -33 -23 -13 0 -29 -7
-37 -16 -7 -8 -21 -13 -31 -11 -10 3 -16 1 -12 -4 7 -11 29 -12 52 0 9 5 29
13 43 19 19 7 30 24 41 56 9 26 11 49 6 52 -4 3 -8 2 -7 -3z"/>
<path d="M2950 461 c0 -25 6 -27 13 -6 4 8 2 17 -3 20 -6 4 -10 -3 -10 -14z"/>
<path d="M65 424 c-11 -8 -19 -18 -18 -22 1 -4 -9 -6 -23 -5 -31 2 -23 -13 10
-19 18 -4 26 0 29 13 3 13 11 16 28 13 22 -5 23 -4 7 9 -10 8 -15 17 -11 20
12 12 -2 7 -22 -9z"/>
<path d="M600 430 c0 -5 5 -10 11 -10 5 0 7 5 4 10 -3 6 -8 10 -11 10 -2 0 -4
-4 -4 -10z"/>
<path d="M6 421 c-4 -5 1 -8 9 -7 21 3 31 16 12 16 -9 0 -18 -4 -21 -9z"/>
<path d="M2730 418 c0 -4 14 -8 30 -8 17 0 30 2 30 4 0 2 -13 6 -30 8 -16 3
-30 1 -30 -4z"/>
<path d="M2810 420 c-13 -8 -12 -10 3 -10 9 0 17 5 17 10 0 12 -1 12 -20 0z"/>
<path d="M2915 421 c-3 -5 0 -13 6 -17 8 -5 9 -3 4 6 -6 10 -4 12 8 7 10 -3
17 -2 17 3 0 13 -27 13 -35 1z"/>
<path d="M2844 409 c1 -7 12 -16 25 -20 14 -6 20 -5 16 1 -3 6 -12 10 -20 10
-7 0 -16 5 -18 10 -3 6 -4 5 -3 -1z"/>
<path d="M515 390 c3 -5 8 -10 11 -10 2 0 4 5 4 10 0 6 -5 10 -11 10 -5 0 -7
-4 -4 -10z"/>
<path d="M590 385 c-7 -9 -8 -15 -2 -15 5 0 12 7 16 15 3 8 4 15 2 15 -2 0 -9
-7 -16 -15z"/>
<path d="M2667 389 c7 -7 15 -10 18 -7 3 3 -2 9 -12 12 -14 6 -15 5 -6 -5z"/>
<path d="M81 376 c-10 -12 -8 -13 8 -9 12 3 21 9 21 14 0 14 -16 11 -29 -5z"/>
<path d="M2900 380 c0 -5 5 -10 10 -10 6 0 10 5 10 10 0 6 -4 10 -10 10 -5 0
-10 -4 -10 -10z"/>
<path d="M500 356 c0 -2 7 -7 16 -10 8 -3 12 -2 9 4 -6 10 -25 14 -25 6z"/>
<path d="M2916 351 c-15 -6 -16 -10 -7 -15 8 -5 20 -2 29 8 17 17 9 19 -22 7z"/>
<path d="M444 336 c-18 -8 -35 -19 -39 -25 -3 -6 12 -2 34 10 23 11 41 23 41
25 0 5 0 5 -36 -10z"/>
<path d="M2305 320 c11 -5 31 -9 45 -9 23 0 23 1 5 9 -11 5 -31 9 -45 9 -23 0
-23 -1 -5 -9z"/>
<path d="M2935 321 c-3 -5 -1 -12 5 -16 5 -3 10 1 10 9 0 18 -6 21 -15 7z"/>
<path d="M2387 309 c7 -7 15 -10 18 -7 3 3 -2 9 -12 12 -14 6 -15 5 -6 -5z"/>
<path d="M2430 300 c20 -13 40 -13 40 0 0 6 -12 10 -27 10 -22 0 -25 -2 -13
-10z"/>
<path d="M437 267 l-17 -32 20 24 c17 20 26 41 18 41 -2 0 -11 -15 -21 -33z"/>
<path d="M1949 284 c-7 -8 -6 -13 2 -16 9 -3 7 -11 -5 -30 -18 -28 -30 -72
-16 -63 4 3 16 27 26 55 10 27 22 50 26 50 4 0 8 4 8 8 0 13 -29 10 -41 -4z"/>
<path d="M2001 263 c-6 -21 -11 -48 -11 -59 0 -25 25 -50 34 -35 3 5 1 11 -6
13 -8 3 -6 15 9 39 11 19 18 40 16 47 -3 6 0 12 6 12 6 0 11 -4 11 -10 0 -5 7
-10 17 -10 14 0 14 2 -2 20 -10 11 -28 20 -41 20 -18 0 -25 -8 -33 -37z m19
-39 c-18 -21 -24 -10 -9 18 8 14 14 18 17 10 2 -7 -2 -19 -8 -28z"/>
<path d="M2085 291 c-3 -5 -1 -12 4 -16 6 -3 7 -13 4 -22 -4 -10 -2 -14 4 -10
6 4 11 18 11 32 0 25 -12 33 -23 16z"/>
<path d="M2190 272 c0 -6 -8 -9 -17 -6 -15 5 -16 4 -3 -5 16 -11 40 3 27 16
-4 3 -7 1 -7 -5z"/>
<path d="M4 261 c3 -5 34 -14 69 -21 35 -6 69 -15 76 -19 8 -6 2 -29 -26 -86
-34 -71 -38 -77 -45 -55 -7 22 -7 22 -4 -4 2 -17 0 -40 -5 -53 -5 -13 -5 -23
-1 -23 5 0 32 49 61 108 l52 108 92 -23 c51 -12 100 -23 110 -23 9 0 17 -2 17
-4 0 -3 -16 -39 -35 -82 -39 -85 -39 -84 -26 -84 4 0 24 36 44 81 29 64 40 79
54 75 10 -3 110 -26 223 -52 113 -25 212 -48 220 -52 8 -3 19 -4 23 -3 5 1 6
-2 4 -6 -2 -5 -1 -17 4 -28 7 -19 8 -19 8 3 1 12 5 22 10 22 24 0 117 -25 122
-33 4 -5 9 -5 13 1 9 15 -18 28 -89 41 -33 7 -80 19 -105 26 -25 8 -56 16 -70
19 -14 2 -83 19 -155 36 -71 17 -143 34 -160 36 -16 3 -64 14 -105 24 -89 23
-354 80 -370 80 -6 0 -9 -4 -6 -9z"/>
<path d="M1547 251 c3 -12 9 -21 14 -21 14 0 11 16 -5 29 -12 10 -13 8 -9 -8z"/>
<path d="M1156 243 c-4 -9 -3 -20 1 -24 4 -4 9 3 9 17 2 28 -1 31 -10 7z"/>
<path d="M1241 247 c-7 -10 -4 -13 15 -15 26 -2 33 12 10 21 -8 3 -19 0 -25
-6z"/>
<path d="M2280 249 c0 -6 25 -19 35 -19 1 0 5 6 8 13 3 7 -4 12 -19 12 -13 0
-24 -3 -24 -6z"/>
<path d="M2685 249 c-4 -6 -5 -12 -2 -15 2 -3 7 2 10 11 7 17 1 20 -8 4z"/>
<path d="M2709 234 c-21 -50 -19 -71 2 -25 11 24 17 46 14 49 -2 3 -10 -8 -16
-24z"/>
<path d="M341 234 c0 -11 3 -14 6 -6 3 7 2 16 -1 19 -3 4 -6 -2 -5 -13z"/>
<path d="M1180 246 c0 -2 7 -6 15 -10 8 -3 15 -1 15 4 0 6 -7 10 -15 10 -8 0
-15 -2 -15 -4z"/>
<path d="M1290 240 c0 -6 4 -9 9 -6 5 4 12 1 14 -4 3 -6 4 -5 3 2 -3 15 -26
23 -26 8z"/>
<path d="M1382 225 c-16 -34 -16 -35 11 -35 17 0 22 6 24 30 3 37 -19 40 -35
5z m19 -12 c-8 -15 -10 -15 -11 -2 0 17 10 32 18 25 2 -3 -1 -13 -7 -23z"/>
<path d="M2382 234 c10 -10 20 -16 22 -13 3 3 -5 11 -17 18 -21 13 -21 12 -5
-5z"/>
<path d="M926 224 c-5 -14 -4 -15 9 -4 17 14 19 20 6 20 -5 0 -12 -7 -15 -16z"/>
<path d="M2516 224 c-3 -8 -2 -13 2 -10 4 2 14 1 22 -4 12 -7 10 -11 -10 -18
l-24 -9 24 -6 c13 -3 26 -4 29 -2 2 3 -1 5 -8 5 -7 0 -10 4 -6 10 3 5 12 7 20
3 8 -3 15 0 15 7 0 6 -4 9 -8 6 -5 -3 -18 3 -30 14 -17 16 -21 17 -26 4z"/>
<path d="M1442 204 c-12 -25 -12 -26 4 -13 13 11 18 11 21 2 3 -7 9 -13 15
-13 6 0 4 7 -3 17 -12 14 -12 16 1 11 8 -2 16 -14 18 -26 2 -12 8 -22 13 -22
12 0 11 7 -1 31 -7 13 -7 19 0 19 5 0 10 -6 10 -12 0 -9 4 -8 11 2 8 11 9 8 4
-13 -4 -19 -2 -26 5 -22 5 3 10 1 10 -4 0 -7 7 -7 20 1 11 7 20 22 20 33 -1
19 -2 18 -13 -3 -7 -12 -16 -19 -20 -16 -11 11 -8 26 3 19 6 -3 10 0 10 8 0 9
-9 14 -22 13 -13 -1 -26 3 -30 9 -5 6 -11 5 -18 -5 -8 -12 -10 -12 -10 -1 0
10 -3 11 -14 2 -11 -9 -15 -9 -18 0 -2 6 -9 -1 -16 -17z"/>
<path d="M2076 222 c-3 -5 1 -9 9 -9 8 0 12 4 9 9 -3 4 -7 8 -9 8 -2 0 -6 -4
-9 -8z"/>
<path d="M2270 220 c0 -6 7 -10 15 -10 8 0 15 2 15 4 0 2 -7 6 -15 10 -8 3
-15 1 -15 -4z"/>
<path d="M2412 214 c-7 -8 -8 -14 -3 -14 10 0 25 19 20 25 -2 1 -10 -3 -17
-11z"/>
<path d="M50 198 c-10 -21 -10 -21 3 -5 15 19 37 23 37 7 0 -5 -4 -10 -8 -10
-7 0 -42 -63 -42 -75 0 -3 5 -5 10 -5 6 0 10 5 10 11 0 6 9 22 20 36 11 14 20
34 20 44 0 27 -37 24 -50 -3z"/>
<path d="M1202 206 c7 -8 15 -12 17 -11 5 6 -10 25 -20 25 -5 0 -4 -6 3 -14z"/>
<path d="M2128 213 c7 -3 16 -2 19 1 4 3 -2 6 -13 5 -11 0 -14 -3 -6 -6z"/>
<path d="M2661 193 c-10 -26 -10 -27 4 -9 8 11 15 23 15 28 0 15 -7 8 -19 -19z"/>
<path d="M2295 187 c-8 -12 -15 -27 -15 -34 0 -13 81 -29 105 -20 8 4 17 2 19
-2 9 -14 79 -21 93 -9 22 18 16 48 -9 47 -18 -1 -19 -2 -5 -6 20 -5 19 -40 -1
-35 -7 1 -20 3 -30 5 -9 1 -24 7 -32 12 -21 13 -39 15 -46 4 -3 -5 -16 -9 -30
-9 -14 0 -23 4 -20 9 4 5 -4 7 -16 3 -17 -4 -20 -2 -15 12 4 10 7 20 7 23 0 3
6 0 14 -6 10 -8 16 -8 25 3 9 11 7 15 -9 19 -13 3 -25 -2 -35 -16z"/>
<path d="M2373 194 c-18 -19 -16 -21 12 -21 22 0 24 2 13 16 -7 9 -12 17 -13
17 0 1 -6 -4 -12 -12z"/>
<path d="M1160 183 c0 -10 4 -14 8 -8 4 6 11 13 16 18 5 4 2 7 -7 7 -10 0 -17
-8 -17 -17z"/>
<path d="M1603 183 c-3 -10 -8 -22 -10 -28 -3 -5 3 -1 11 9 16 20 21 36 11 36
-3 0 -8 -8 -12 -17z"/>
<path d="M2448 193 c7 -3 16 -2 19 1 4 3 -2 6 -13 5 -11 0 -14 -3 -6 -6z"/>
<path d="M2040 179 c0 -5 5 -7 10 -4 6 3 10 8 10 11 0 2 -4 4 -10 4 -5 0 -10
-5 -10 -11z"/>
<path d="M900 170 c20 -13 33 -13 25 0 -3 6 -14 10 -23 10 -15 0 -15 -2 -2
-10z"/>
<path d="M2420 176 c0 -9 30 -14 35 -6 4 6 -3 10 -14 10 -12 0 -21 -2 -21 -4z"/>
<path d="M2770 155 c-10 -12 -10 -15 4 -15 9 0 16 5 16 11 0 6 9 8 21 4 15 -5
19 -4 15 4 -10 16 -41 14 -56 -4z"/>
<path d="M2933 158 c-5 -7 -14 -30 -20 -50 -11 -39 0 -55 26 -38 10 5 9 9 -2
13 -12 4 -14 13 -8 34 6 23 13 28 35 26 17 -1 26 2 23 10 -5 17 -42 20 -54 5z"/>
<path d="M880 145 c-10 -13 -9 -15 9 -15 11 0 21 4 21 9 0 18 -18 21 -30 6z"/>
<path d="M1426 145 c-9 -26 -7 -32 5 -12 6 10 9 21 6 23 -2 3 -7 -2 -11 -11z"/>
<path d="M1965 150 c3 -6 -1 -13 -9 -16 -9 -3 -16 -10 -16 -15 0 -5 9 -4 20 3
21 14 27 38 9 38 -5 0 -7 -5 -4 -10z"/>
<path d="M161 109 c-11 -24 -17 -48 -13 -53 3 -6 7 -5 10 2 2 7 8 12 13 12 6
0 8 -4 4 -9 -9 -15 12 -22 23 -8 15 18 32 86 22 92 -4 2 -10 -13 -14 -35 -7
-42 -16 -49 -35 -26 -10 12 -8 19 8 35 12 12 16 23 10 26 -5 4 -18 -13 -28
-36z"/>
<path d="M1993 100 c-6 -28 -6 -50 -2 -50 5 0 9 9 9 20 0 11 4 20 8 20 5 0 9
6 9 13 0 6 4 20 8 30 5 12 3 17 -8 17 -9 0 -18 -17 -24 -50z"/>
<path d="M2037 83 c-40 -78 -41 -83 -28 -83 11 0 73 130 68 144 -2 6 -20 -22
-40 -61z"/>
<path d="M1473 128 c2 -7 -2 -21 -11 -30 -8 -10 -10 -18 -5 -18 6 0 15 6 20
13 13 15 13 47 1 47 -6 0 -8 -6 -5 -12z"/>
<path d="M2797 134 c-12 -12 3 -22 24 -17 16 4 17 8 7 14 -16 10 -23 11 -31 3z"/>
<path d="M245 115 c-3 -8 -7 -22 -10 -31 -3 -10 0 -14 7 -11 7 2 12 10 11 16
-2 6 2 11 7 11 6 0 10 7 10 15 0 8 -5 15 -10 15 -6 0 -13 -7 -15 -15z"/>
<path d="M330 120 c12 -8 12 -10 -5 -11 -11 0 -14 -3 -8 -6 9 -3 7 -15 -7 -43
-11 -22 -20 -43 -20 -47 1 -4 14 17 29 47 29 55 31 70 8 70 -7 0 -6 -4 3 -10z"/>
<path d="M1075 120 c-3 -5 -2 -10 4 -10 5 0 13 5 16 10 3 6 2 10 -4 10 -5 0
-13 -4 -16 -10z"/>
<path d="M1644 95 c-17 -41 -17 -45 -3 -45 5 0 8 3 6 8 -3 4 -1 17 4 29 9 24
31 22 57 -4 18 -18 6 -33 -26 -33 -25 0 -26 -1 -7 -14 26 -17 57 -17 51 0 -3
8 -1 16 5 19 14 9 -26 61 -52 68 -16 4 -24 -1 -35 -28z"/>
<path d="M1864 118 c-3 -4 11 -8 30 -8 20 0 36 4 36 8 0 11 -59 11 -66 0z"/>
<path d="M2868 123 c7 -3 16 -2 19 1 4 3 -2 6 -13 5 -11 0 -14 -3 -6 -6z"/>
<path d="M2956 116 c10 -8 21 -12 24 -10 5 6 -21 24 -34 24 -6 0 -1 -6 10 -14z"/>
<path d="M185 109 c-4 -6 -5 -12 -2 -15 2 -3 7 2 10 11 7 17 1 20 -8 4z"/>
<path d="M1210 100 c-7 -13 -7 -20 -1 -20 6 0 15 9 21 20 7 13 7 20 1 20 -6 0
-15 -9 -21 -20z"/>
<path d="M2320 106 c0 -8 4 -18 10 -21 6 -3 7 1 4 9 -3 9 -1 16 5 16 6 0 11
-4 11 -10 0 -5 7 -10 16 -10 14 0 14 2 0 15 -19 19 -46 19 -46 1z"/>
<path d="M2755 96 c11 -17 14 -37 11 -63 -3 -21 -3 -31 0 -23 3 8 9 24 14 35
17 40 20 56 10 50 -6 -3 -13 1 -16 9 -3 9 -13 16 -20 16 -12 0 -12 -4 1 -24z"/>
<path d="M2260 91 c-12 -24 -13 -34 -1 -27 9 6 22 46 15 46 -2 0 -8 -9 -14
-19z"/>
<path d="M2693 84 c-14 -14 -22 -28 -18 -32 3 -4 11 1 16 11 6 9 17 17 24 17
8 0 15 7 15 15 0 21 -7 19 -37 -11z"/>
<path d="M2408 78 c-7 -13 -20 -36 -27 -53 -13 -30 -13 -30 7 -10 10 11 17 26
14 33 -3 8 1 10 12 6 12 -5 15 0 14 20 -3 31 -2 31 -20 4z"/>
<path d="M275 69 c-10 -31 0 -33 19 -4 14 21 14 25 2 25 -8 0 -18 -9 -21 -21z"/>
<path d="M1815 59 c-9 -17 -15 -33 -13 -35 3 -2 12 12 21 31 21 43 13 47 -8 4z"/>
<path d="M1560 73 c0 -5 4 -14 9 -21 7 -11 9 -11 14 1 3 8 3 18 0 21 -9 8 -23
7 -23 -1z"/>
<path d="M2302 55 c3 -27 10 -25 15 5 2 11 -2 20 -7 20 -5 0 -9 -11 -8 -25z"/>
<path d="M2366 63 c-6 -14 -5 -15 5 -6 7 7 10 15 7 18 -3 3 -9 -2 -12 -12z"/>
<path d="M2854 62 c-22 -18 -39 -62 -23 -62 5 0 9 9 9 19 0 11 12 29 26 40 15
12 23 21 18 21 -5 0 -19 -8 -30 -18z"/>
<path d="M33 58 c-6 -7 -13 -21 -16 -31 -6 -15 -4 -16 13 -7 11 6 20 20 20 30
0 23 -4 25 -17 8z"/>
<path d="M1028 63 c7 -3 16 -2 19 1 4 3 -2 6 -13 5 -11 0 -14 -3 -6 -6z"/>
<path d="M2330 60 c0 -5 5 -10 10 -10 6 0 10 5 10 10 0 6 -4 10 -10 10 -5 0
-10 -4 -10 -10z"/>
<path d="M2271 50 c-1 -22 26 -54 34 -41 3 6 1 11 -5 11 -6 0 -15 10 -20 23
-5 12 -9 15 -9 7z"/>
<path d="M2241 34 c0 -11 3 -14 6 -6 3 7 2 16 -1 19 -3 4 -6 -2 -5 -13z"/>
<path d="M2930 26 c0 -14 5 -26 10 -26 6 0 10 9 10 19 0 11 -4 23 -10 26 -6 4
-10 -5 -10 -19z"/>
<path d="M140 20 c-7 -14 -7 -20 0 -20 5 0 10 6 10 14 0 8 6 17 13 19 9 4 9 6
0 6 -7 1 -17 -8 -23 -19z"/>
<path d="M845 20 c-18 -19 -17 -20 1 -20 11 0 25 9 32 20 17 28 -8 28 -33 0z"/>
<path d="M1971 31 c-7 -5 -12 -14 -10 -20 2 -6 10 -2 17 9 14 22 13 23 -7 11z"/>
<path d="M2650 20 c-6 -11 -8 -20 -6 -20 3 0 10 9 16 20 6 11 8 20 6 20 -3 0
-10 -9 -16 -20z"/>
<path d="M171 21 c-9 -6 -4 -8 18 -6 17 1 34 5 38 9 10 9 -40 7 -56 -3z"/>
<path d="M1560 19 c0 -5 5 -7 10 -4 6 3 10 8 10 11 0 2 -4 4 -10 4 -5 0 -10
-5 -10 -11z"/>
<path d="M1626 13 c-6 -14 -5 -15 5 -6 7 7 10 15 7 18 -3 3 -9 -2 -12 -12z"/>
<path d="M1745 19 c-4 -6 -5 -12 -2 -15 2 -3 7 2 10 11 7 17 1 20 -8 4z"/>
<path d="M1921 14 c0 -11 3 -14 6 -6 3 7 2 16 -1 19 -3 4 -6 -2 -5 -13z"/>
<path d="M2330 20 c-8 -5 -11 -12 -8 -16 10 -9 38 3 38 16 0 12 -10 13 -30 0z"/>
<path d="M2851 14 c0 -11 3 -14 6 -6 3 7 2 16 -1 19 -3 4 -6 -2 -5 -13z"/>
<path d="M250 10 c0 -5 5 -10 11 -10 5 0 7 5 4 10 -3 6 -8 10 -11 10 -2 0 -4
-4 -4 -10z"/>
<path d="M1830 10 c0 -5 5 -10 10 -10 6 0 10 5 10 10 0 6 -4 10 -10 10 -5 0
-10 -4 -10 -10z"/>
<path d="M2167 9 c7 -7 15 -10 18 -7 3 3 -2 9 -12 12 -14 6 -15 5 -6 -5z"/>
</g>
</svg>
