<?xml version="1.0" standalone="no"?>
<!DOCTYPE svg PUBLIC "-//W3C//DTD SVG 20010904//EN"
 "http://www.w3.org/TR/2001/REC-SVG-20010904/DTD/svg10.dtd">
<svg version="1.0" xmlns="http://www.w3.org/2000/svg"
 width="300.000000pt" height="120.000000pt" viewBox="0 0 300.000000 120.000000"
 preserveAspectRatio="xMidYMid meet">
<metadata>
Created by potrace 1.10, written by Peter Selinger 2001-2011
</metadata>
<g transform="translate(0.000000,120.000000) scale(0.100000,-0.100000)"
fill="#000000" stroke="none">
<path d="M115 1190 c3 -5 8 -10 11 -10 2 0 4 5 4 10 0 6 -5 10 -11 10 -5 0 -7
-4 -4 -10z"/>
<path d="M201 1159 c-7 -12 -10 -23 -8 -26 3 -3 11 5 17 17 15 28 8 35 -9 9z"/>
<path d="M1960 1151 c-12 -23 -14 -118 -2 -125 5 -3 7 20 4 50 -4 43 -1 59 13
74 10 11 13 20 7 20 -6 0 -16 -9 -22 -19z"/>
<path d="M2023 1060 c0 -47 2 -66 4 -42 2 23 2 61 0 85 -2 23 -4 4 -4 -43z"/>
<path d="M164 1095 c-4 -8 -18 -15 -33 -15 -15 0 -32 -5 -39 -12 -16 -16 -15
-68 1 -90 12 -15 16 -14 50 6 20 13 34 26 29 30 -4 4 2 14 12 22 16 11 17 14
4 14 -21 0 -32 29 -13 36 17 7 20 24 5 24 -6 0 -13 -7 -16 -15z m-6 -58 c3
-12 -4 -20 -17 -24 -11 -3 -18 -9 -15 -14 3 -5 -1 -9 -8 -9 -8 0 -13 13 -14
36 0 32 2 35 25 32 16 -2 27 -10 29 -21z"/>
<path d="M126 1041 c-4 -7 -5 -15 -2 -18 9 -9 19 4 14 18 -4 11 -6 11 -12 0z"/>
<path d="M370 1093 c-14 -9 -27 -20 -30 -24 -3 -4 -21 0 -39 8 -30 15 -36 15
-60 2 -18 -11 -26 -23 -26 -42 1 -17 -5 -27 -15 -28 -8 0 -1 -5 15 -10 39 -12
76 -4 69 16 -4 9 1 18 11 21 13 6 14 9 3 16 -9 7 -8 8 7 6 26 -4 34 -48 9 -48
-19 0 -13 -10 8 -14 7 -1 19 -5 26 -9 7 -5 28 -3 47 3 19 6 39 9 45 5 6 -4 35
-3 65 0 41 6 56 12 61 27 8 25 -14 50 -40 46 -12 -1 -27 1 -34 6 -7 4 -25 5
-39 1 -21 -5 -24 -10 -21 -35 3 -17 1 -30 -4 -30 -10 0 -11 67 0 73 4 2 1 2
-5 1 -7 -2 -16 3 -21 11 -7 13 -11 13 -32 -2z m-80 -20 c0 -12 -16 -35 -26
-36 -5 -1 -8 -8 -8 -14 1 -7 -3 -13 -10 -13 -6 0 -11 11 -11 25 0 19 5 25 23
25 13 0 20 4 17 10 -3 6 -1 10 4 10 6 0 11 -3 11 -7z m110 -28 c0 -30 -3 -35
-24 -35 -14 0 -27 4 -30 9 -9 14 5 41 21 41 8 0 11 5 8 10 -3 6 1 10 9 10 12
0 16 -10 16 -35z m95 -10 c0 -14 -8 -21 -25 -22 -23 -2 -23 -2 -5 6 17 8 18
10 3 10 -19 1 -23 12 -11 25 13 13 38 1 38 -19z m60 0 c0 -13 -8 -21 -22 -23
-19 -3 -23 1 -23 23 0 22 4 26 23 23 14 -2 22 -10 22 -23z"/>
<path d="M366 1041 c-4 -7 -5 -15 -2 -18 9 -9 19 4 14 18 -4 11 -6 11 -12 0z"/>
<path d="M520 1035 c0 -8 5 -15 10 -15 6 0 10 7 10 15 0 8 -4 15 -10 15 -5 0
-10 -7 -10 -15z"/>
<path d="M1055 1063 c-30 -29 -11 -47 56 -56 39 -5 50 -3 65 14 15 17 16 21 3
33 -21 21 -107 27 -124 9z m78 -12 c23 -1 37 -6 37 -14 0 -15 -46 -21 -55 -6
-5 7 -11 6 -21 -2 -11 -9 -14 -8 -14 2 0 11 -2 11 -10 -1 -8 -12 -10 -11 -10
7 0 15 5 20 18 18 9 -2 34 -4 55 -4z"/>
<path d="M1404 1062 c-14 -34 -11 -41 22 -52 19 -6 34 -17 34 -23 0 -6 6 -3
13 8 8 10 19 15 25 11 13 -8 44 22 39 37 -4 12 -29 20 -89 30 -28 4 -38 2 -44
-11z m82 -12 c30 0 42 -4 39 -12 -3 -8 -26 -13 -60 -13 -47 0 -55 2 -55 18 0
13 5 17 16 13 9 -3 35 -6 60 -6z"/>
<path d="M1790 1070 c-8 -5 -32 -7 -54 -3 -42 7 -61 -9 -46 -38 12 -21 60 -32
60 -13 0 7 -5 16 -12 20 -6 4 -8 3 -5 -2 3 -6 -3 -11 -14 -11 -14 -1 -19 4
-18 20 0 21 1 21 9 2 5 -11 9 -14 9 -7 1 6 13 12 27 12 21 0 25 -4 21 -19 -6
-25 24 -34 51 -15 11 7 23 10 27 6 5 -4 -2 8 -14 26 -12 17 -23 32 -24 32 -1
0 -9 -5 -17 -10z m14 -16 c9 -3 16 -14 16 -23 -1 -13 -3 -13 -17 4 -13 16 -15
17 -10 3 4 -10 2 -18 -3 -18 -6 0 -10 9 -10 20 0 22 1 23 24 14z"/>
<path d="M1896 1015 c4 -8 8 -15 10 -15 2 0 4 7 4 15 0 8 -4 15 -10 15 -5 0
-7 -7 -4 -15z"/>
<path d="M258 943 c7 -3 16 -2 19 1 4 3 -2 6 -13 5 -11 0 -14 -3 -6 -6z"/>
<path d="M1840 910 c0 -11 5 -20 10 -20 6 0 10 9 10 20 0 11 -4 20 -10 20 -5
0 -10 -9 -10 -20z"/>
<path d="M1730 899 c0 -5 5 -7 10 -4 6 3 10 8 10 11 0 2 -4 4 -10 4 -5 0 -10
-5 -10 -11z"/>
<path d="M793 863 c-12 -2 -27 -10 -33 -18 -13 -15 -80 -9 -92 9 -4 7 -15 6
-33 -4 -21 -11 -32 -11 -59 -2 -44 16 -71 15 -86 -3 -7 -8 -21 -13 -34 -10
-11 3 -50 8 -86 10 -36 3 -86 8 -112 11 -40 5 -49 3 -55 -11 -3 -10 -1 -26 6
-37 6 -10 9 -23 6 -29 -4 -5 -8 -28 -10 -50 -4 -46 10 -67 40 -63 10 2 27 -1
36 -7 10 -5 20 -5 23 0 6 9 142 14 361 12 50 0 97 0 105 0 32 1 178 0 223 -1
27 -1 60 -5 73 -11 15 -5 23 -5 19 0 -3 5 8 12 24 16 18 4 28 12 27 22 -1 15
22 25 54 23 8 0 23 0 33 -1 10 0 17 -8 17 -20 0 -21 -16 -26 -23 -6 -4 10 -6
10 -6 0 -1 -7 -9 -13 -18 -13 -13 0 -15 -3 -5 -8 7 -5 36 -5 65 -2 28 4 64 4
79 -1 14 -4 28 -5 31 -3 2 2 68 4 147 5 119 0 139 2 125 13 -11 8 -16 20 -12
30 20 51 48 -31 33 -95 l-11 -44 -72 0 c-40 0 -73 4 -73 10 0 5 -5 4 -12 -3
-17 -17 -49 -15 -42 1 3 8 -2 14 -11 14 -9 0 -14 -6 -11 -13 4 -9 -19 -12 -97
-11 -56 1 -107 5 -114 10 -6 4 -14 3 -18 -3 -10 -16 -42 -12 -49 7 -5 12 -9
14 -14 6 -9 -14 -192 -22 -192 -8 0 6 -3 6 -8 -1 -5 -7 -118 -10 -357 -8 -401
2 -380 7 -380 -86 0 -30 -4 -61 -10 -69 -8 -11 -7 -13 4 -7 8 5 16 4 21 -4 6
-10 50 -13 182 -12 113 1 168 -2 158 -8 -9 -6 -10 -10 -3 -10 6 0 15 4 18 10
11 17 45 12 38 -6 -3 -8 -12 -13 -19 -10 -7 3 -16 0 -20 -6 -4 -7 -3 -8 4 -4
7 4 12 2 12 -5 0 -8 7 -6 19 5 18 16 20 16 41 -14 12 -16 26 -28 31 -24 13 7
41 -15 33 -27 -9 -15 -32 -10 -53 13 -17 17 -25 19 -43 11 -20 -9 -18 -11 27
-26 60 -21 82 -21 82 -2 0 17 -52 67 -80 78 -54 21 24 25 415 26 231 0 426 -3
431 -6 6 -4 2 -10 -9 -14 -15 -6 -14 -7 9 -6 15 1 27 5 27 10 0 11 43 26 54
19 11 -6 1266 -5 1273 1 9 9 -837 17 -1697 16 l-925 -1 0 68 0 69 1337 0 c736
1 1340 4 1343 7 6 6 -344 11 -848 12 -196 1 -357 4 -357 8 0 4 -7 5 -15 2 -8
-4 -15 -1 -15 5 0 6 5 11 11 11 5 0 8 4 4 10 -3 5 -3 20 0 33 6 22 12 24 72
26 46 1 69 -2 74 -11 7 -10 9 -10 9 0 0 6 12 12 28 13 15 0 21 3 15 6 -7 2
-13 14 -13 26 0 18 2 19 10 7 7 -11 12 -12 18 -4 5 8 129 12 430 12 l423 1 -6
-22 c-5 -22 -5 -22 6 1 11 19 20 22 79 22 45 0 71 5 79 14 29 35 -3 37 -604
36 -399 0 -592 3 -600 10 -9 8 -15 8 -20 0 -5 -8 -11 -8 -21 1 -11 9 -14 8
-14 -6 0 -12 -5 -15 -16 -11 -9 3 -63 6 -120 6 -103 0 -104 0 -104 24 0 34
-24 49 -74 48 -26 -1 -48 3 -54 11 -13 15 -66 14 -85 -2 -7 -5 -58 -10 -117
-9 -110 1 -150 -6 -150 -25 0 -9 -2 -9 -8 -1 -6 11 -88 56 -94 53 -2 -1 -13
-4 -25 -6z m435 -57 c3 -36 2 -37 -25 -34 -35 4 -45 37 -13 45 13 4 19 11 16
20 -4 9 -1 13 6 11 7 -3 14 -21 16 -42z m-971 -1 c10 -31 9 -35 -8 -35 -12 0
-16 5 -13 14 3 8 1 24 -6 35 -8 17 -8 21 3 21 7 0 18 -16 24 -35z m33 31 c0
-2 -7 -9 -15 -16 -12 -10 -15 -10 -15 4 0 9 7 16 15 16 8 0 15 -2 15 -4z m275
-6 c4 -7 -2 -9 -19 -4 -23 5 -26 3 -26 -20 0 -17 5 -26 16 -26 11 0 14 5 10
16 -4 10 -1 14 6 12 26 -9 13 -33 -17 -33 -31 0 -43 20 -31 51 6 16 52 19 61
4z m96 -2 c1 -7 1 -21 0 -30 -3 -25 15 -23 22 2 3 11 14 20 24 20 26 0 32 -7
26 -30 -4 -16 -13 -19 -47 -17 -38 2 -41 4 -44 35 -2 18 1 32 7 32 6 0 12 -6
12 -12z m179 3 c0 -5 10 -11 23 -13 29 -4 31 -43 2 -43 -12 0 -21 8 -23 20 -7
36 -25 43 -20 8 4 -26 1 -33 -12 -33 -13 0 -16 7 -12 32 4 26 2 30 -12 25 -9
-4 -16 -2 -16 3 0 6 16 10 35 10 19 0 35 -4 35 -9z m-506 -20 c10 -16 -5 -41
-24 -41 -23 0 -34 16 -26 35 6 16 42 20 50 6z m37 -13 l2 -23 4 23 c6 30 23
28 23 -3 0 -20 -5 -25 -24 -25 -17 0 -25 7 -28 25 -4 17 -1 25 8 25 8 0 15
-10 15 -22z m89 11 c0 -5 -5 -7 -12 -3 -8 5 -9 0 -6 -14 5 -16 2 -22 -10 -22
-11 0 -17 8 -17 25 0 19 5 25 23 25 12 0 22 -5 22 -11z m168 -16 c3 -19 -1
-23 -22 -23 -16 0 -26 6 -26 15 0 8 5 15 11 15 5 0 7 -4 4 -10 -3 -5 -1 -10 4
-10 18 0 12 28 -6 34 -11 3 -7 4 7 3 18 -1 26 -9 28 -24z m142 0 c0 -19 -13
-9 -16 12 -1 8 2 13 7 9 5 -3 9 -12 9 -21z m220 7 c0 -11 -7 -23 -15 -26 -8
-4 -15 -10 -15 -15 0 -5 412 -10 968 -12 614 -1 476 -2 -378 -2 -740 0 -1181
2 -980 5 l365 5 0 33 c0 28 3 32 27 32 21 0 28 -5 28 -20z m58 -7 c3 -19 -1
-23 -22 -23 -16 0 -26 6 -26 15 0 18 16 20 23 3 4 -8 6 -7 6 4 1 9 -7 19 -16
22 -11 3 -7 4 7 3 18 -1 26 -9 28 -24z m114 2 c5 -22 2 -25 -23 -25 -19 0 -29
5 -29 15 0 18 16 20 23 3 3 -8 6 -5 6 5 1 14 -5 18 -26 15 -20 -2 -28 -8 -27
-20 1 -10 -3 -18 -10 -18 -6 0 -11 11 -11 25 0 23 4 25 46 25 42 0 47 -3 51
-25z m100 0 c4 -17 1 -25 -8 -25 -9 0 -13 10 -12 25 1 14 5 25 9 25 4 0 9 -11
11 -25z m43 15 c-17 -7 -17 -9 -2 -9 26 -1 21 -31 -5 -31 -17 0 -19 3 -10 9
11 7 10 9 -3 15 -22 8 -9 26 18 25 21 0 21 -1 2 -9z m73 -18 c3 -16 -2 -22
-17 -22 -24 0 -35 15 -27 36 9 23 40 13 44 -14z m-898 -12 c0 -5 -2 -10 -4
-10 -3 0 -8 5 -11 10 -3 6 -1 10 4 10 6 0 11 -4 11 -10z m-192 -60 c15 0 21
-4 17 -12 -4 -7 0 -5 8 4 13 17 15 16 26 -5 6 -12 9 -14 7 -4 -5 15 0 17 30
15 38 -2 49 -11 38 -30 -5 -7 -11 -5 -21 7 -11 16 -13 16 -13 3 0 -12 -8 -16
-32 -14 -18 2 -37 0 -43 -4 -5 -4 -27 -5 -47 -3 -33 5 -38 9 -38 30 0 21 4 24
23 19 12 -3 32 -6 45 -6z m308 2 c19 -13 25 -42 9 -42 -9 0 -15 10 -16 23 -1
21 -1 21 -9 -3 l-8 -25 -1 28 c-1 27 5 33 25 19z m124 -17 c1 20 1 20 10 0 8
-18 9 -18 9 -2 1 21 26 18 26 -3 0 -8 -14 -15 -32 -17 -26 -3 -33 0 -34 14 0
14 -2 15 -7 3 -10 -22 -42 -24 -43 -3 -1 17 -2 17 -6 0 -5 -20 -23 -13 -23 9
0 10 10 14 35 12 19 -1 38 1 42 6 4 4 11 -3 14 -16 6 -20 7 -21 9 -3z m294 -3
c-5 -15 -4 -15 5 -1 6 9 26 16 51 17 34 2 40 -1 40 -18 0 -25 -15 -26 -30 -2
-11 16 -11 16 -6 0 4 -13 0 -18 -15 -18 -13 0 -18 4 -13 13 6 9 5 9 -7 1 -24
-19 -69 -14 -69 7 0 21 16 26 23 7 3 -8 6 -5 6 5 1 10 5 16 11 12 5 -3 7 -13
4 -23z m311 6 c-5 -17 -4 -19 4 -9 10 15 41 24 41 13 -1 -30 -60 -42 -60 -13
0 16 8 31 17 31 3 0 1 -10 -2 -22z m495 -7 c0 -15 -10 -18 -55 -18 -30 0 -55
4 -55 8 0 4 -9 6 -20 4 -12 -2 -20 2 -20 9 0 9 16 12 51 12 28 -1 55 2 61 5
17 11 38 -1 38 -20z m27 -8 c-3 -10 -5 -4 -5 12 0 17 2 24 5 18 2 -7 2 -21 0
-30z m-1378 15 c11 -10 13 -10 7 0 -5 8 1 12 18 12 18 0 26 -6 27 -17 1 -17 2
-17 6 0 6 23 19 22 19 -3 0 -14 -7 -20 -23 -20 -15 0 -23 6 -23 18 -1 16 -1
16 -11 0 -5 -10 -16 -15 -24 -12 -8 4 -15 1 -15 -5 0 -6 -3 -11 -7 -11 -5 0
-8 11 -8 25 0 27 13 32 34 13z m419 -5 c-8 -10 -13 -11 -18 -3 -5 8 -9 8 -12
-2 -3 -8 -21 -15 -40 -16 -27 -2 -34 1 -34 17 0 16 8 19 58 18 47 -1 55 -3 46
-14z m62 -12 c0 -3 -13 -7 -30 -7 -34 -2 -37 3 -13 22 17 12 43 3 43 -15z
m343 15 c3 -8 3 -17 0 -20 -12 -11 -23 -6 -24 12 0 14 -2 14 -9 -3 -8 -19 -9
-19 -9 3 -1 25 33 32 42 8z m181 3 c-5 -8 -3 -9 7 -4 23 15 57 15 55 0 -3 -19
-16 -32 -16 -16 0 7 -5 9 -12 4 -19 -12 -101 -12 -115 0 -9 6 -13 5 -13 -3 0
-8 -2 -11 -5 -8 -17 16 10 33 56 36 37 2 49 -1 43 -9z m139 -9 c4 -16 0 -20
-22 -20 -32 0 -42 7 -35 24 8 21 51 18 57 -4z"/>
<path d="M1190 795 c0 -8 5 -15 10 -15 6 0 10 7 10 15 0 8 -4 15 -10 15 -5 0
-10 -7 -10 -15z"/>
<path d="M855 801 c-3 -5 -1 -12 5 -16 5 -3 10 1 10 9 0 18 -6 21 -15 7z"/>
<path d="M300 795 c0 -8 5 -15 10 -15 6 0 10 7 10 15 0 8 -4 15 -10 15 -5 0
-10 -7 -10 -15z"/>
<path d="M961 794 c0 -11 3 -14 6 -6 3 7 2 16 -1 19 -3 4 -6 -2 -5 -13z"/>
<path d="M240 700 c-13 -8 -12 -10 3 -10 9 0 17 5 17 10 0 12 -1 12 -20 0z"/>
<path d="M281 694 c0 -11 3 -14 6 -6 3 7 2 16 -1 19 -3 4 -6 -2 -5 -13z"/>
<path d="M1770 699 c0 -5 5 -7 10 -4 6 3 10 8 10 11 0 2 -4 4 -10 4 -5 0 -10
-5 -10 -11z"/>
<path d="M1430 700 c0 -5 5 -10 10 -10 6 0 10 5 10 10 0 6 -4 10 -10 10 -5 0
-10 -4 -10 -10z"/>
<path d="M1740 842 c0 -5 7 -15 15 -22 8 -7 15 -9 15 -6 0 4 -7 14 -15 22 -8
9 -15 11 -15 6z"/>
<path d="M1821 834 c0 -11 3 -14 6 -6 3 7 2 16 -1 19 -3 4 -6 -2 -5 -13z"/>
<path d="M1600 830 c0 -5 5 -10 11 -10 5 0 7 5 4 10 -3 6 -8 10 -11 10 -2 0
-4 -4 -4 -10z"/>
<path d="M1142 700 c3 -8 -4 -25 -15 -37 -25 -28 -8 -30 23 -3 21 18 21 20 4
37 -12 13 -16 14 -12 3z"/>
<path d="M2675 700 c3 -5 8 -10 11 -10 2 0 4 5 4 10 0 6 -5 10 -11 10 -5 0 -7
-4 -4 -10z"/>
<path d="M1502 621 c18 -16 35 -27 38 -24 6 6 -47 53 -61 53 -5 0 5 -13 23
-29z"/>
<path d="M1455 615 c11 -9 19 -19 18 -23 -1 -4 0 -9 2 -10 2 -2 2 4 1 13 -1
10 -11 22 -22 27 -18 9 -17 8 1 -7z"/>
<path d="M156 577 c3 -10 9 -15 12 -12 3 3 0 11 -7 18 -10 9 -11 8 -5 -6z"/>
<path d="M230 490 l0 -60 1095 0 1095 0 0 60 0 60 -1095 0 -1095 0 0 -60z
m900 37 c0 -5 3 -6 8 -3 4 2 101 7 215 10 l207 5 1 -22 c0 -16 2 -18 7 -7 11
24 31 22 24 -2 -3 -14 -1 -19 6 -14 7 4 12 16 12 27 0 10 5 19 10 19 6 0 10
-5 10 -11 0 -5 5 -7 11 -3 9 5 614 9 742 5 25 -1 27 -4 27 -41 0 -31 -4 -40
-17 -40 -28 -1 -723 -1 -777 0 -44 0 -47 1 -35 17 8 9 9 14 2 10 -6 -4 -14 -1
-17 5 -4 9 -5 8 -5 -2 1 -8 1 -19 0 -25 -1 -6 -78 -10 -212 -9 -169 1 -213 4
-220 15 -7 12 -9 12 -9 -1 0 -13 -42 -15 -323 -13 -177 1 -375 2 -439 3 l-118
0 0 35 c0 19 6 37 14 42 19 11 876 10 876 0z"/>
<path d="M2907 543 c-8 -14 -5 -123 3 -128 5 -3 8 26 7 65 -2 72 -3 75 -10 63z"/>
<path d="M2470 497 c0 -44 8 -46 171 -44 85 0 160 -2 166 -6 8 -5 18 4 28 22
11 22 12 32 3 37 -6 4 -92 9 -190 10 -177 2 -178 2 -178 -19z m95 1 c4 -3 22
-2 42 4 37 10 46 7 49 -18 2 -11 -9 -14 -52 -13 -41 2 -54 6 -55 18 -1 13 -2
13 -6 -1 -2 -10 -9 -18 -14 -18 -6 0 -7 6 -3 13 6 10 4 10 -7 0 -7 -7 -20 -13
-28 -13 -13 1 -12 4 4 17 16 13 17 15 3 10 -10 -4 -18 -2 -18 2 0 10 76 9 85
-1z m263 -3 c1 -1 0 -9 -3 -17 -8 -20 -92 -13 -117 10 -12 9 -18 11 -18 4 0
-7 5 -12 10 -12 6 0 10 -4 10 -10 0 -5 -7 -7 -15 -4 -8 4 -15 14 -15 24 0 15
8 17 73 12 39 -2 73 -6 75 -7z"/>
<path d="M2795 480 c3 -5 8 -10 11 -10 2 0 4 5 4 10 0 6 -5 10 -11 10 -5 0 -7
-4 -4 -10z"/>
<path d="M2863 403 c9 -2 23 -2 30 0 6 3 -1 5 -18 5 -16 0 -22 -2 -12 -5z"/>
<path d="M185 365 c-3 -8 -7 -22 -10 -31 -3 -8 -1 -13 4 -10 5 3 11 17 13 31
6 27 0 34 -7 10z"/>
<path d="M1150 371 c0 -6 4 -13 10 -16 6 -3 7 1 4 9 -7 18 -14 21 -14 7z"/>
<path d="M1395 356 c28 -15 57 -25 65 -23 18 3 -42 33 -85 42 -23 5 -18 0 20
-19z"/>
<path d="M1489 333 c-13 -16 -12 -17 4 -4 16 13 21 21 13 21 -2 0 -10 -8 -17
-17z"/>
<path d="M495 330 c-4 -6 -11 -7 -17 -4 -6 4 -8 2 -4 -4 3 -6 -2 -15 -11 -21
-10 -6 -13 -11 -7 -11 6 0 21 11 34 25 13 14 21 25 17 25 -3 0 -9 -5 -12 -10z"/>
<path d="M1084 318 c-43 -32 -53 -44 -19 -23 17 10 41 25 55 32 16 8 19 13 9
13 -9 0 -29 -10 -45 -22z"/>
<path d="M222 310 c0 -14 2 -19 5 -12 2 6 2 18 0 25 -3 6 -5 1 -5 -13z"/>
<path d="M1410 310 c0 -6 -5 -8 -12 -4 -7 4 -8 3 -4 -4 9 -14 36 -16 36 -3 0
6 -4 13 -10 16 -5 3 -10 1 -10 -5z"/>
<path d="M2010 307 c0 -3 17 -16 38 -31 40 -28 71 -36 37 -10 -24 18 -75 46
-75 41z"/>
<path d="M730 285 c0 -13 6 -16 26 -11 14 4 23 3 20 -2 -7 -12 129 -35 169
-29 22 3 17 4 -17 6 -80 2 -67 21 16 21 41 0 77 3 79 8 3 4 -52 7 -121 7 -70
0 -137 4 -149 8 -18 7 -23 5 -23 -8z"/>
<path d="M1432 273 c-26 -26 -27 -26 -69 -11 -33 12 -43 13 -43 3 0 -7 17 -15
38 -19 57 -9 72 -7 72 9 0 8 9 15 20 15 11 0 20 7 20 15 0 21 -7 19 -38 -12z"/>
<path d="M434 258 l-19 -23 23 19 c21 18 27 26 19 26 -2 0 -12 -10 -23 -22z"/>
<path d="M573 266 c0 -19 147 -54 300 -71 56 -6 64 -11 50 -31 -5 -5 0 -1 10
10 10 11 26 26 35 33 15 12 14 13 -6 3 -13 -6 -30 -9 -37 -6 -8 3 -50 10 -95
16 -74 10 -202 39 -241 55 -10 4 -16 1 -16 -9z"/>
<path d="M110 250 c0 -5 5 -10 11 -10 5 0 7 5 4 10 -3 6 -8 10 -11 10 -2 0 -4
-4 -4 -10z"/>
<path d="M162 240 c0 -14 2 -19 5 -12 2 6 2 18 0 25 -3 6 -5 1 -5 -13z"/>
<path d="M1000 250 c-9 -6 -10 -10 -3 -10 6 0 15 5 18 10 8 12 4 12 -15 0z"/>
<path d="M2795 250 c-3 -6 1 -7 9 -4 18 7 21 14 7 14 -6 0 -13 -4 -16 -10z"/>
<path d="M1450 234 c8 -4 21 -14 28 -23 13 -14 13 -14 10 4 -2 13 -12 21 -28
22 -14 1 -18 0 -10 -3z"/>
<path d="M1510 232 c0 -9 69 -56 74 -51 2 2 -14 16 -35 31 -21 15 -39 24 -39
20z"/>
<path d="M344 216 c-10 -8 -17 -16 -14 -19 3 -2 14 4 24 14 23 22 18 25 -10 5z"/>
<path d="M1311 226 c9 -10 181 -58 186 -52 7 7 -40 26 -87 36 -90 20 -105 22
-99 16z"/>
<path d="M72 195 c-7 -14 -12 -31 -12 -38 1 -7 7 3 16 22 17 39 13 54 -4 16z"/>
<path d="M201 204 c0 -11 3 -14 6 -6 3 7 2 16 -1 19 -3 4 -6 -2 -5 -13z"/>
<path d="M553 206 c0 -16 135 -51 167 -43 11 3 18 1 14 -4 -7 -11 44 -11 71 1
18 8 18 9 -6 9 -24 1 -194 35 -230 46 -9 3 -16 0 -16 -9z"/>
<path d="M163 191 c0 -11 5 -18 9 -15 4 3 5 11 1 19 -7 21 -12 19 -10 -4z"/>
<path d="M1506 197 c3 -10 9 -15 12 -12 3 3 0 11 -7 18 -10 9 -11 8 -5 -6z"/>
<path d="M100 196 c0 -2 7 -9 15 -16 13 -11 14 -10 9 4 -5 14 -24 23 -24 12z"/>
<path d="M356 185 c-4 -12 -1 -16 11 -13 18 3 21 20 5 26 -5 1 -12 -4 -16 -13z"/>
<path d="M525 189 c-4 -6 -5 -12 -2 -15 2 -3 7 2 10 11 7 17 1 20 -8 4z"/>
<path d="M1233 189 c-18 -5 -33 -11 -33 -14 0 -2 15 -2 33 1 20 3 67 -6 127
-25 58 -18 98 -27 104 -21 6 6 -2 14 -19 20 -34 13 -167 50 -175 49 -3 0 -20
-5 -37 -10z"/>
<path d="M322 160 c0 -14 2 -19 5 -12 2 6 2 18 0 25 -3 6 -5 1 -5 -13z"/>
<path d="M1610 160 c6 -11 13 -20 16 -20 2 0 0 9 -6 20 -6 11 -13 20 -16 20
-2 0 0 -9 6 -20z"/>
<path d="M540 151 c8 -5 31 -11 50 -15 24 -4 28 -3 15 2 -31 14 -83 24 -65 13z"/>
<path d="M853 153 c9 -2 23 -2 30 0 6 3 -1 5 -18 5 -16 0 -22 -2 -12 -5z"/>
<path d="M293 136 c4 -6 7 -18 7 -27 0 -10 5 -21 10 -24 17 -10 11 22 -7 42
-10 10 -15 14 -10 9z"/>
<path d="M1192 142 c-7 -5 34 -21 108 -41 118 -32 120 -33 168 -17 59 20 87
39 78 54 -4 7 -15 6 -34 -4 -15 -7 -31 -14 -36 -14 -5 0 -17 -7 -26 -15 -14
-13 -28 -11 -121 15 -113 33 -118 33 -137 22z"/>
<path d="M688 133 c7 -3 16 -2 19 1 4 3 -2 6 -13 5 -11 0 -14 -3 -6 -6z"/>
<path d="M181 114 c0 -11 3 -14 6 -6 3 7 2 16 -1 19 -3 4 -6 -2 -5 -13z"/>
<path d="M236 113 c-6 -14 -5 -15 5 -6 7 7 10 15 7 18 -3 3 -9 -2 -12 -12z"/>
<path d="M330 121 c0 -5 9 -12 19 -16 11 -3 22 -14 24 -23 4 -15 5 -15 6 1 0
10 -7 21 -16 24 -15 6 -14 8 7 14 23 6 23 7 -7 8 -18 1 -33 -3 -33 -8z"/>
<path d="M1626 99 c-8 -42 0 -50 9 -9 4 17 5 34 2 36 -2 3 -7 -10 -11 -27z"/>
<path d="M270 87 c0 -7 7 -22 16 -33 14 -17 15 -17 10 -1 -3 10 -6 25 -6 33 0
8 -4 14 -10 14 -5 0 -10 -6 -10 -13z"/>
<path d="M1140 90 c-13 -8 -12 -10 3 -10 10 0 53 -12 95 -27 69 -24 152 -37
152 -23 0 5 -210 70 -226 70 -5 0 -16 -5 -24 -10z"/>
<path d="M1536 70 c-16 -10 -52 -24 -80 -31 -44 -11 -48 -13 -27 -21 43 -15
151 25 151 57 0 19 -8 18 -44 -5z"/>
<path d="M310 55 c0 -8 8 -15 18 -15 14 0 14 2 3 9 -11 7 -10 10 5 14 16 4 16
5 -3 6 -14 1 -23 -5 -23 -14z"/>
<path d="M235 50 c-6 -10 29 -50 46 -50 6 0 1 13 -11 30 -23 33 -26 34 -35 20z"/>
<path d="M571 46 c2 -2 49 -6 104 -8 65 -4 86 -3 60 3 -39 8 -172 12 -164 5z"/>
<path d="M1094 38 c-4 -7 -4 -10 1 -6 4 4 14 1 22 -7 8 -8 20 -15 26 -15 7 0
6 4 -3 10 -13 8 -12 10 3 10 9 0 17 -4 17 -8 0 -4 8 -8 18 -9 9 0 33 -3 52 -7
19 -3 1 5 -40 19 -88 29 -87 29 -96 13z"/>
<path d="M568 13 c6 -2 18 -2 25 0 6 3 1 5 -13 5 -14 0 -19 -2 -12 -5z"/>
<path d="M1570 10 c-13 -8 -12 -10 3 -10 9 0 17 5 17 10 0 12 -1 12 -20 0z"/>
<path d="M628 3 c12 -2 30 -2 40 0 9 3 -1 5 -23 4 -22 0 -30 -2 -17 -4z"/>
</g>
</svg>
